<?xml version="1.0" encoding="utf-8"?>
<!-- Generator: Adobe Illustrator 22.1.0, SVG Export Plug-In . SVG Version: 6.00 Build 0)  -->
<svg version="1.1" id="Calque_1" xmlns="http://www.w3.org/2000/svg" xmlns:xlink="http://www.w3.org/1999/xlink" x="0px" y="0px"
	 viewBox="0 0 1024 768" style="enable-background:new 0 0 1024 768;" xml:space="preserve">
<style type="text/css">
	.st0{fill:#FFFFFF;}
</style>
<g>
	<polygon class="st0" points="126.5,285.4 125.1,286.2 125,286.2 123.6,285.4 125.1,284.7 	"/>
	<polygon class="st0" points="125.1,284.7 123.6,285.4 125,286.2 125.1,286.2 126.5,285.4 125.1,284.7 	"/>
</g>
<g>
	<polygon class="st0" points="126.5,285.4 125.1,286.2 125,286.2 123.6,285.4 125.1,284.7 	"/>
	<polygon class="st0" points="125.1,284.7 123.6,285.4 125,286.2 125.1,286.2 126.5,285.4 125.1,284.7 	"/>
</g>
<g>
	<polygon class="st0" points="126.5,285.4 125.1,286.2 125,286.2 	"/>
	<polygon class="st0" points="126.5,285.4 125,286.2 125.1,286.2 126.5,285.4 	"/>
</g>
<polygon class="st0" points="256,0 512,256 768,0 1024,256 512,768 0,256 "/>
</svg>
