<?xml version="1.0" standalone="no"?>
<!DOCTYPE svg PUBLIC "-//W3C//DTD SVG 20010904//EN"
 "http://www.w3.org/TR/2001/REC-SVG-20010904/DTD/svg10.dtd">
<svg version="1.0" xmlns="http://www.w3.org/2000/svg"
 width="649.000000pt" height="649.000000pt" viewBox="0 0 649.000000 649.000000"
 preserveAspectRatio="xMidYMid meet">
<metadata>
Created by potrace 1.11, written by Peter Selinger 2001-2013
</metadata>
<g transform="translate(0.000000,649.000000) scale(0.100000,-0.100000)"
fill="#000000" stroke="none">
<path d="M3022 5018 c-177 -20 -367 -102 -656 -283 -101 -63 -216 -130 -277
-160 -54 -28 -69 -40 -69 -58 0 -21 2 -22 101 -20 81 2 111 -2 157 -19 112
-41 200 -118 249 -218 49 -97 49 -109 52 -854 5 -1166 4 -1439 -3 -1491 -22
-146 -151 -297 -292 -342 -48 -15 -54 -20 -54 -44 l0 -26 1018 1 1017 1 3 23
c2 14 -3 24 -15 28 -166 56 -279 171 -322 329 -7 27 -11 384 -11 1145 -1 608
-3 1132 -5 1165 -30 427 -187 690 -471 784 -121 40 -284 56 -422 39z"/>
<path d="M5255 5019 c-178 -21 -338 -85 -576 -230 -216 -132 -320 -192 -381
-222 -48 -23 -58 -32 -58 -53 0 -23 3 -25 27 -19 35 8 152 8 189 -1 16 -4 58
-20 94 -37 121 -58 217 -183 241 -315 13 -68 20 -2154 8 -2230 -11 -73 -62
-170 -117 -226 -48 -49 -145 -109 -195 -121 -33 -9 -40 -19 -32 -44 5 -18 36
-19 1018 -17 l1012 1 3 28 c2 20 -1 27 -13 27 -36 0 -148 65 -199 115 -51 50
-108 146 -122 205 -4 14 -7 540 -9 1170 -1 630 -5 1168 -9 1195 -4 28 -9 64
-11 80 -10 73 -16 101 -35 171 -69 253 -216 418 -435 487 -112 36 -278 51
-400 36z"/>
<path d="M4 4955 c0 -21 8 -27 55 -42 136 -42 250 -174 288 -333 2 -8 5 -539
7 -1180 1 -641 5 -1176 9 -1190 3 -14 8 -43 11 -65 20 -159 79 -318 157 -422
51 -68 80 -96 142 -139 123 -85 246 -118 442 -119 155 0 188 4 314 41 97 28
251 107 486 249 124 75 250 148 280 161 54 25 69 42 59 68 -4 11 -13 12 -35 6
-42 -12 -167 -4 -219 15 -137 49 -234 147 -281 285 l-22 65 -4 1093 c-5 1215
-7 1158 63 1273 54 90 124 146 246 197 39 17 46 24 41 41 l-5 21 -1017 0
-1017 0 0 -25z"/>
</g>
</svg>
