<?xml version="1.0" encoding="utf-8"?>
<!-- Generator: Adobe Illustrator 22.0.1, SVG Export Plug-In . SVG Version: 6.00 Build 0)  -->
<svg version="1.1" id="Calque_1" xmlns="http://www.w3.org/2000/svg" xmlns:xlink="http://www.w3.org/1999/xlink" x="0px" y="0px"
	 viewBox="0 0 1920 1080" style="enable-background:new 0 0 1920 1080;" xml:space="preserve">
<style type="text/css">
	.st0{fill:#FFFFFF;}
</style>
<rect width="1920" height="1080"/>
<g>
	<g>
		<path class="st0" d="M818.7,608.7c-3.6,0-5.5-2-5.5-5.2v-91h-26.8V527h-2c-5.2-7.3-16.1-17.5-36.1-17.5
			c-31.8,0-55.4,26.3-55.4,62.4c0,36.1,24.1,62.4,56,62.4c20.6,0,31.1-10.7,35.6-17.9h2c0.9,7.7,6.3,15,17,15h20.2v-22.7H818.7z
			 M753.8,608.5c-18.8,0-33.6-13.9-33.6-36.3c0-22,14.3-37,33.4-37c18.1,0,33.4,13.4,33.4,37C786.9,592.3,774,608.5,753.8,608.5z"/>
		<path class="st0" d="M870.9,545.9c0-7,6.8-12,18.1-12c11.3,0,19,4.8,21.3,15.2l23.8-6.5c-4.3-21.3-22.2-32.9-45.1-32.9
			c-27,0-43.8,15.7-43.8,35.8c0,48.3,64.4,28.1,64.4,52.2c0,7.9-6.8,12.7-19.7,12.7c-12.5,0-21.1-5.9-23.6-18.4l-25.4,5.7
			c3.2,24.2,22.5,36.7,48.3,36.7c29.3,0,47.9-15.9,47.9-39.2C937.1,547.2,870.9,568.1,870.9,545.9z"/>
		<path class="st0" d="M1073,571.3c0-35.4-22-61.7-58.3-61.7c-32,0-59.4,25.2-59.4,62.6c0,36.3,24.3,62.1,60.6,62.1
			c24.7,0,46.5-12.2,54.2-37l-24.5-5.9c-4.3,13.2-16.8,20-30,20c-19.5,0-32.4-12.7-32.7-32.7h90.1V571.3z M983.2,559.2
			c1.6-14.3,14.5-26.3,31.5-26.3c16.3,0,29.7,10.2,31.1,26.3H983.2z"/>
	</g>
	<rect x="579.9" y="617.3" class="st0" width="0.2" height="14.1"/>
	<rect x="579.9" y="617.3" class="st0" width="0.2" height="14.1"/>
	<g>
		<path class="st0" d="M1066.8,473.7v-25.6H552.8v183.3h27.1v-14.1h2c4.8,6.1,14.8,17,35.2,17c32,0,56.7-26.3,56.7-62.4
			c0-35.4-23.1-62.4-54.9-62.4c-21.1,0-31.5,11.3-36.7,18.1h-2v-54H1066.8z M613.2,534.7c18.8,0,33.4,15.4,33.4,37.4
			c0,22.4-15,37.2-33.8,37.2c-18,0-30.2-13.5-32.7-30.7c-0.3-2.1-0.5-4.3-0.5-6.5c0-2.4,0.2-4.8,0.5-7
			C582.8,545.9,596.7,534.7,613.2,534.7z"/>
	</g>
	<rect x="579.9" y="617.3" class="st0" width="0.2" height="14.1"/>
	<g>
		<path class="st0" d="M1144,455.2c-0.7-1.7-1.6-3.1-2.7-4.3c-1.1-1.1-2.4-2-4-2.6c-1.5-0.6-3.1-0.9-4.9-0.9c-3.3,0-5.9,1.1-8.1,3.2
			v-8.8l0.5-4.7l-0.5-0.5h-1.5l-8.3,3.2v1.6l0.5,0.5h0.5c0.5,0,1,0.2,1.4,0.7c0.4,0.4,0.6,0.9,0.6,1.4v24.5c0,0.5-0.2,1-0.6,1.4
			c-0.4,0.4-0.9,0.6-1.4,0.6h-0.6l-0.4,0.4v2.3l0.4,0.4h9l0.4-0.4v-2.3c2,2.3,4.8,3.4,8.2,3.4c3.6,0,6.6-1.3,8.9-3.8
			c2.3-2.5,3.5-5.7,3.5-9.6C1145,458.8,1144.7,456.9,1144,455.2z M1137.8,464.7c-0.3,1.2-0.7,2.3-1.2,3.3c-0.6,1-1.3,1.8-2.2,2.3
			c-0.9,0.6-2,0.9-3.2,0.9c-1.2,0-2.3-0.3-3.3-0.9c-0.9-0.6-1.7-1.3-2.2-2.3c-0.6-1-1-2.1-1.2-3.3c-0.3-1.2-0.4-2.5-0.4-3.9
			c0-1.4,0.1-2.7,0.4-3.9c0.3-1.2,0.7-2.3,1.2-3.3c0.5-1,1.3-1.8,2.2-2.3c1-0.6,2-0.9,3.3-0.9c1.2,0,2.3,0.3,3.2,0.9
			c0.9,0.6,1.7,1.3,2.2,2.3c0.6,1,1,2.1,1.2,3.3c0.3,1.2,0.4,2.4,0.4,3.8C1138.2,462.2,1138.1,463.5,1137.8,464.7z"/>
		<path class="st0" d="M1173.7,455.5c-0.7-1.6-1.7-3.1-3-4.3c-1.2-1.2-2.7-2.1-4.4-2.8c-1.7-0.7-3.5-1-5.4-1c-1.9,0-3.7,0.3-5.4,1
			c-1.7,0.7-3.2,1.6-4.4,2.8c-1.2,1.2-2.2,2.6-3,4.3c-0.7,1.7-1.1,3.4-1.1,5.3c0,2.5,0.6,4.7,1.9,6.8c1.2,2,2.9,3.7,5,4.8
			c2.1,1.2,4.4,1.8,7,1.8c2.5,0,4.9-0.6,7-1.8c2.1-1.1,3.9-2.8,5.1-4.8c1.3-2.1,1.9-4.3,1.9-6.8
			C1174.9,459,1174.5,457.2,1173.7,455.5z M1166.2,468.3c-1.2,1.9-3,2.8-5.3,2.8c-2.3,0-4-0.9-5.3-2.8c-1.3-1.9-1.9-4.4-1.9-7.5
			c0-3.1,0.6-5.6,1.9-7.5c1.2-1.9,3-2.9,5.3-2.9c2.3,0,4.1,1,5.3,2.9c1.3,1.9,1.9,4.4,1.9,7.5C1168.1,464,1167.5,466.4,1166.2,468.3
			z"/>
		<path class="st0" d="M1195.9,448.6c-0.8-0.8-1.8-1.1-3.1-1.1c-1.6,0-3,0.5-4.2,1.4c-1.2,0.9-2.1,2.1-2.9,3.7l0.5-3.8l-0.5-0.5
			h-1.6l-7.4,3l-0.4,0.5v1.2l0.5,0.5h0.5c0.5,0,1,0.2,1.4,0.6c0.4,0.4,0.7,0.9,0.7,1.4v12.9c0,0.5-0.2,1-0.7,1.4
			c-0.4,0.4-0.9,0.6-1.4,0.6h-0.6l-0.4,0.4v2.3l0.4,0.4h12.1l0.4-0.4v-2.3l-0.4-0.4h-0.6c-0.5,0-1-0.2-1.4-0.6
			c-0.4-0.4-0.6-0.9-0.6-1.4v-9.5c0-1.7,0.3-3.3,0.9-4.6c0.6-1.4,1.4-2.3,2.3-2.9c0,1.1,0.4,2.1,1.1,2.8c0.7,0.8,1.6,1.1,2.7,1.1
			c1.1,0,2-0.4,2.7-1.1c0.7-0.7,1.1-1.7,1.1-2.8C1197,450.3,1196.6,449.4,1195.9,448.6z"/>
		<path class="st0" d="M1229,470.4h-0.6c-0.5,0-1-0.2-1.4-0.6c-0.4-0.4-0.6-0.9-0.6-1.4v-26.6l0.5-4.7l-0.5-0.5h-1.5l-8.3,3.2v1.6
			l0.5,0.5h0.5c0.5,0,1,0.2,1.4,0.6c0.4,0.4,0.6,0.9,0.6,1.4v6.8c-2.1-2.1-4.8-3.2-8.1-3.2c-1.7,0-3.4,0.3-4.9,0.9
			c-1.5,0.6-2.9,1.4-4,2.6c-1.1,1.1-2,2.6-2.7,4.3c-0.6,1.7-1,3.6-1,5.7c0,3.9,1.1,7.1,3.5,9.6c2.4,2.5,5.3,3.8,8.9,3.8
			c3.4,0,6.2-1.1,8.2-3.4v2.3l0.4,0.4h9l0.4-0.4v-2.3L1229,470.4z M1219.5,464.7c-0.3,1.2-0.7,2.3-1.3,3.3c-0.5,1-1.3,1.7-2.2,2.3
			c-0.9,0.6-2,0.9-3.2,0.9c-1.3,0-2.4-0.3-3.3-0.9c-1-0.6-1.7-1.3-2.2-2.3c-0.5-1-0.9-2.1-1.2-3.3c-0.3-1.2-0.4-2.5-0.4-3.9
			c0-1.4,0.1-2.7,0.4-3.9c0.3-1.2,0.7-2.3,1.2-3.3c0.6-1,1.3-1.8,2.2-2.4c0.9-0.6,2-0.9,3.3-0.9c1.2,0,2.3,0.3,3.2,0.9
			c0.9,0.6,1.7,1.4,2.2,2.3c0.6,1,1,2.1,1.3,3.3c0.3,1.2,0.4,2.5,0.4,3.9C1219.9,462.2,1219.8,463.5,1219.5,464.7z"/>
		<path class="st0" d="M1257,464.2l-0.6-0.2l-0.5,0.2c-2.3,3.4-5.5,5.1-9.7,5.1c-2.3,0-4.2-0.6-5.8-1.9c-1.5-1.2-2.4-2.9-2.7-4.9
			l18.7-1.6l0.7-0.4c0-1.8-0.3-3.4-0.8-5c-0.5-1.6-1.3-3-2.3-4.2c-1-1.3-2.3-2.3-4-3c-1.6-0.7-3.5-1.1-5.6-1.1
			c-2.4,0-4.7,0.6-6.8,1.7c-2.1,1.1-3.7,2.7-4.9,4.8c-1.2,2-1.9,4.3-1.9,6.7c0,2.5,0.6,4.8,1.7,6.9c1.1,2.1,2.8,3.7,4.9,4.9
			c2.1,1.2,4.5,1.8,7.1,1.8c3.1,0,5.7-0.9,8-2.5c2.2-1.6,3.7-4,4.6-6.9L1257,464.2z M1239.7,453c1.3-1.6,2.9-2.4,5-2.4
			c1.7,0,3.1,0.6,4.1,1.7c1,1.1,1.5,2.6,1.5,4.4c0,0.6-0.1,1.1-0.5,1.5c-0.3,0.4-0.9,0.6-1.7,0.7l-10.3,0.8l-0.1-0.4
			C1237.8,456.7,1238.4,454.5,1239.7,453z"/>
		<path class="st0" d="M1288.8,468.8h-0.4c-0.6,0-1-0.2-1.3-0.5c-0.4-0.4-0.5-0.9-0.5-1.5v-13.4l0.5-4.7l-0.5-0.6h-1.9l-3.1,3.3
			h-0.3c-0.9-1.1-2.1-2-3.6-2.8c-1.5-0.8-3.3-1.2-5.4-1.2c-2.5,0-4.7,0.6-6.8,1.8c-2,1.2-3.6,2.8-4.7,4.9c-1.2,2-1.7,4.3-1.7,6.7
			c0,1.6,0.2,3.1,0.7,4.6c0.5,1.4,1.1,2.7,1.9,3.7c0.8,1.1,1.7,2,2.7,2.7c1.1,0.8,2.2,1.4,3.4,1.7c1.2,0.4,2.4,0.6,3.6,0.6
			c1.9,0,3.4-0.3,4.6-0.8c1.2-0.5,2.3-1.3,3.4-2.3v2.3l0.6,0.5h1.6l7.7-3.2v-1.6L1288.8,468.8z M1279.4,464.4
			c-0.3,1.1-0.6,2.3-1.1,3.3c-0.5,1-1.2,1.9-2.1,2.5c-0.9,0.6-2,0.9-3.3,0.9c-1.3,0-2.4-0.3-3.3-0.9c-0.9-0.6-1.7-1.4-2.2-2.5
			c-0.5-1-0.9-2.1-1.1-3.3c-0.3-1.1-0.4-2.3-0.4-3.6c0-1.3,0.1-2.4,0.4-3.6c0.3-1.1,0.6-2.3,1.1-3.3c0.5-1,1.3-1.9,2.2-2.5
			c0.9-0.6,2-1,3.3-1c1.3,0,2.4,0.3,3.3,1c0.9,0.6,1.7,1.4,2.1,2.5c0.5,1.1,0.9,2.1,1.1,3.3c0.2,1.1,0.3,2.3,0.3,3.6
			C1279.7,462.1,1279.6,463.3,1279.4,464.4z"/>
		<path class="st0" d="M1320.1,468.8h-0.5c-0.5,0-0.9-0.2-1.4-0.6c-0.4-0.4-0.6-0.9-0.7-1.3v-13.5l0.6-4.7l-0.6-0.5h-1.5l-8.3,3.2
			v1.6l0.6,0.5h0.5c0.5,0,1,0.2,1.4,0.6c0.4,0.4,0.7,0.9,0.7,1.4v8c0,2-0.6,3.7-1.6,4.9c-1.1,1.2-2.5,1.8-4.1,1.8
			c-1.5,0-2.6-0.4-3.5-1.3c-0.9-0.8-1.3-2-1.3-3.7v-11.9l0.5-4.7l-0.5-0.5h-1.5l-8.3,3.2v1.6l0.5,0.5h0.5c0.5,0,1,0.2,1.4,0.6
			c0.4,0.4,0.6,0.9,0.6,1.4v10c0,2.9,0.8,5.1,2.4,6.6c1.6,1.5,3.8,2.3,6.6,2.3c1.7,0,3.2-0.4,4.7-1.1c1.5-0.7,2.7-1.6,3.6-2.8v3.1
			l0.5,0.5h1.6l7.8-3.2v-1.6L1320.1,468.8z"/>
		<path class="st0" d="M1348.6,470.4h-1.5c-0.4,0-0.7-0.1-0.9-0.3c-0.2-0.2-0.5-0.5-0.8-0.9l-7.7-9.9l5.3-6.7
			c0.5-0.6,0.9-0.9,1.3-1.1c0.3-0.2,0.8-0.3,1.4-0.3h0.9l0.4-0.4v-2.3l-0.4-0.4h-8.9l-0.4,0.4v2.3l0.4,0.4h0.6
			c0.4,0,0.7,0.1,0.9,0.3c0.2,0.2,0.4,0.5,0.4,0.8c0,0.3-0.1,0.6-0.4,1l-3.1,3.9l-2.9-3.9c-0.3-0.4-0.4-0.7-0.4-1
			c0-0.3,0.1-0.6,0.3-0.8c0.2-0.3,0.5-0.4,0.9-0.4h0.5l0.4-0.4v-2.3l-0.4-0.4h-11.9l-0.4,0.4v2.3l0.4,0.4h1.1c0.3,0,0.5,0.1,0.8,0.2
			c0.2,0.2,0.4,0.3,0.6,0.5c0.1,0.1,0.3,0.4,0.6,0.8l6.9,9l-6.2,7.6c-0.3,0.4-0.6,0.7-0.9,0.9c-0.3,0.2-0.8,0.3-1.4,0.3h-2l-0.4,0.4
			v2.3l0.4,0.4h10.4l0.4-0.4v-2.3l-0.4-0.4h-1c-0.9,0-1.3-0.3-1.3-1c0-0.3,0.1-0.7,0.4-1.1l3.7-4.5l3.5,4.5c0.2,0.3,0.3,0.6,0.3,1
			c0,0.3-0.1,0.6-0.3,0.8c-0.2,0.2-0.5,0.3-0.9,0.3h-1l-0.4,0.4v2.3l0.4,0.4h12.9l0.4-0.4v-2.3L1348.6,470.4z"/>
		<path class="st0" d="M1144.7,521.3h-0.4c-0.6,0-1-0.2-1.3-0.5c-0.3-0.4-0.5-0.9-0.5-1.5v-13.4l0.5-4.7l-0.5-0.6h-1.9l-3.1,3.3
			h-0.3c-0.9-1.1-2.1-2-3.6-2.9c-1.5-0.8-3.3-1.2-5.4-1.2c-2.5,0-4.7,0.6-6.8,1.8c-2,1.2-3.6,2.8-4.7,4.9c-1.1,2.1-1.7,4.3-1.7,6.7
			c0,1.6,0.2,3.1,0.7,4.6c0.4,1.4,1.1,2.7,1.9,3.7c0.8,1.1,1.7,2,2.8,2.7c1,0.8,2.1,1.4,3.3,1.7c1.2,0.4,2.4,0.6,3.6,0.6
			c1.9,0,3.4-0.3,4.6-0.8c1.2-0.5,2.3-1.3,3.4-2.3v2.3l0.6,0.5h1.6l7.6-3.1l0.2-0.1v-1.5L1144.7,521.3z M1135.3,516.9
			c-0.3,1.1-0.6,2.3-1.1,3.3c-0.5,1-1.3,1.9-2.2,2.5c-0.9,0.6-2,1-3.3,1s-2.4-0.3-3.3-1c-0.9-0.6-1.7-1.4-2.2-2.5s-0.9-2.1-1.1-3.3
			c-0.2-1.1-0.4-2.3-0.4-3.6c0-1.3,0.1-2.4,0.4-3.6c0.3-1.1,0.6-2.3,1.1-3.3c0.5-1,1.3-1.9,2.2-2.5c0.9-0.6,2-0.9,3.3-0.9
			s2.4,0.3,3.3,0.9c1,0.6,1.7,1.4,2.2,2.5c0.5,1,0.9,2.1,1.1,3.3c0.2,1.1,0.3,2.3,0.3,3.6C1135.7,514.6,1135.6,515.7,1135.3,516.9z"
			/>
		<path class="st0" d="M1165.7,503.5c0-0.3-0.1-0.6-0.2-0.9c-0.2-0.6-0.5-1.1-1-1.6c-0.8-0.7-1.8-1.1-3.1-1.1c-1.6,0-3,0.5-4.2,1.4
			c-1.2,0.9-2.1,2.1-2.9,3.7l0.5-3.8l-0.5-0.5h-1.6l-7.4,3l-0.4,0.5v1.2l0.5,0.5h0.5c0.5,0,1,0.2,1.4,0.6c0.4,0.4,0.7,0.9,0.7,1.4
			v12.9c0,0.5-0.2,1-0.7,1.4c-0.4,0.4-0.9,0.6-1.4,0.6h-0.6l-0.2,0.2l-0.2,0.2v2.3l0.4,0.4h12.1l0.4-0.4v-2.3l-0.4-0.4h-0.6
			c-0.5,0-1-0.2-1.4-0.6c-0.4-0.4-0.7-0.9-0.7-1.4v-9.5c0-1.7,0.3-3.3,0.9-4.6c0.6-1.4,1.4-2.3,2.3-2.9c0,1.1,0.4,2,1.1,2.8
			c0.7,0.8,1.6,1.2,2.7,1.2c1.1,0,2-0.4,2.7-1.1c0.7-0.7,1.1-1.7,1.1-2.8C1165.7,503.7,1165.7,503.6,1165.7,503.5z"/>
		<path class="st0" d="M1185.8,519.5l-0.6-0.2l-0.5,0.2c-0.8,2.3-2.2,3.5-4.2,3.5c-1.3,0-2.2-0.4-2.9-1.2c-0.7-0.8-1.1-2-1.1-3.6
			v-14.5h6.5l0.4-0.4V501l-0.4-0.4h-6.5l0.5-6.7l-0.5-0.6h-0.8l-10.2,8.9v1.1l0.2,0.2l0.3,0.2h1.7c0.5,0,1,0.2,1.4,0.6
			c0.4,0.4,0.6,0.9,0.6,1.4v12.4c0,1.5,0.2,2.8,0.7,3.9c0.4,1.1,1,2,1.8,2.7c0.8,0.7,1.6,1.1,2.6,1.5c1,0.3,2,0.5,3.2,0.5
			c1.2,0,2.2-0.1,3.1-0.4c0.9-0.3,1.6-0.6,2.2-1c0.6-0.4,1-0.9,1.4-1.6c0.4-0.7,0.7-1.3,0.9-1.8c0.2-0.6,0.4-1.2,0.5-1.9
			L1185.8,519.5z"/>
		<path class="st0" d="M1204.5,515.4c-0.4-0.9-0.9-1.5-1.6-2.1c-0.7-0.6-1.4-1-2.1-1.3c-0.7-0.3-1.7-0.7-2.9-1
			c-1.9-0.6-3.2-1.3-4.1-2.1c-0.9-0.7-1.3-1.7-1.3-2.9c0-1.1,0.3-1.9,1-2.5c0.7-0.6,1.6-0.9,2.8-0.9c1.4,0,2.4,0.5,3.2,1.4
			c0.7,0.9,1.1,2.1,1.1,3.6l0.5,0.5h1.6l0.5-0.5l-0.3-5.7l-0.3-0.5c-1.9-1-4.2-1.4-6.7-1.4c-2.7,0-4.9,0.7-6.7,2.2
			c-1.8,1.4-2.7,3.3-2.7,5.7c0,1.7,0.6,3.1,1.6,4.4c1.1,1.2,2.6,2.2,4.6,2.8c0.9,0.3,1.5,0.5,2,0.7c0.4,0.2,1,0.4,1.5,0.7
			c0.5,0.3,0.9,0.6,1.1,0.9c0.3,0.3,0.5,0.6,0.6,1.1c0.2,0.4,0.3,0.9,0.3,1.4c0,0.6-0.1,1.2-0.3,1.8c-0.2,0.6-0.7,1.2-1.3,1.7
			c-0.6,0.5-1.4,0.8-2.3,0.8c-1.4,0-2.6-0.5-3.3-1.5c-0.8-1-1.1-2.4-1.1-4.1l-0.6-0.5h-1.5l-0.5,0.5l-1.4,5.6l0.2,0.5
			c2.4,1.5,5.3,2.3,8.7,2.3c1.9,0,3.5-0.3,5-0.9c1.5-0.6,2.7-1.5,3.7-2.8c1-1.3,1.5-2.9,1.5-4.6
			C1205,517.2,1204.8,516.2,1204.5,515.4z"/>
		<path class="st0" d="M1133.5,567.8c-0.4-0.9-0.9-1.5-1.6-2.1c-0.7-0.6-1.4-1-2.1-1.3c-0.7-0.3-1.7-0.7-2.9-1
			c-1.9-0.6-3.2-1.3-4.1-2.1c-0.9-0.7-1.3-1.7-1.3-2.9c0-1.1,0.3-1.9,1-2.5c0.7-0.6,1.6-0.9,2.8-0.9c1.4,0,2.4,0.5,3.2,1.4
			c0.7,0.9,1.1,2.1,1.1,3.6l0.5,0.5h1.6l0.5-0.5l-0.3-5.6l-0.3-0.5c-1.9-1-4.2-1.4-6.7-1.4c-2.7,0-4.9,0.7-6.7,2.2
			c-1.8,1.4-2.7,3.3-2.7,5.7c0,1.7,0.6,3.1,1.6,4.4c1.1,1.2,2.6,2.2,4.6,2.8c0.8,0.3,1.5,0.5,2,0.7c0.4,0.2,1,0.4,1.5,0.7
			c0.5,0.3,0.9,0.6,1.1,0.9c0.3,0.3,0.5,0.7,0.6,1.1c0.2,0.4,0.3,0.9,0.3,1.4c0,0.6-0.1,1.2-0.3,1.8c-0.2,0.6-0.7,1.2-1.3,1.7
			c-0.6,0.5-1.4,0.8-2.3,0.8c-1.4,0-2.6-0.5-3.3-1.5c-0.8-1-1.1-2.4-1.1-4.1l-0.6-0.5h-1.5l-0.5,0.5l-1.4,5.6l0.2,0.5
			c2.4,1.5,5.3,2.3,8.7,2.3c1.9,0,3.5-0.3,5-0.9c1.5-0.6,2.7-1.5,3.7-2.8c1-1.3,1.5-2.9,1.5-4.6
			C1134,569.6,1133.9,568.7,1133.5,567.8z"/>
		<path class="st0" d="M1163.2,573.7h-0.5c-0.5,0-0.9-0.2-1.4-0.6c-0.4-0.4-0.6-0.8-0.7-1.3v-13.5l0.6-4.7l-0.6-0.6h-1.5l-8.3,3.2
			v1.6l0.6,0.5h0.5c0.5,0,1,0.2,1.4,0.6c0.4,0.4,0.7,0.9,0.7,1.4v8c0,2-0.6,3.7-1.6,4.9c-1.1,1.2-2.5,1.8-4.1,1.8
			c-1.5,0-2.6-0.4-3.5-1.3c-0.9-0.8-1.3-2-1.3-3.7v-11.9l0.5-4.7l-0.5-0.6h-1.5l-8.3,3.2v1.6l0.5,0.5h0.5c0.5,0,1,0.2,1.4,0.6
			c0.4,0.4,0.6,0.9,0.6,1.4v10c0,2.9,0.8,5.1,2.4,6.6c1.6,1.5,3.8,2.3,6.6,2.3c1.7,0,3.2-0.4,4.7-1.1c1.5-0.7,2.7-1.6,3.6-2.8v3.1
			l0.5,0.5h1.6l7.7-3.1l0.1-0.1v-1.6L1163.2,573.7z"/>
		<path class="st0" d="M1193.1,560.1c-0.7-1.7-1.6-3.1-2.7-4.2c-1.1-1.1-2.5-2-4-2.6c-1.5-0.6-3.1-0.9-4.9-0.9c-3.2,0-5.9,1.1-8,3.2
			v-8.8l0.5-4.7l-0.5-0.5h-1.6l-8.3,3.2v1.6l0.5,0.5h0.5c0.5,0,1,0.2,1.4,0.7c0.4,0.4,0.6,0.9,0.6,1.4v24.5c0,0.5-0.2,1-0.6,1.4
			c-0.4,0.4-0.9,0.6-1.4,0.6h-0.6l-0.2,0.3l-0.1,0.1v2.3l0.4,0.4h9.1l0.4-0.4v-2.3c2,2.3,4.7,3.4,8.1,3.4c3.6,0,6.6-1.3,8.9-3.8
			c2.4-2.5,3.5-5.7,3.5-9.6C1194,563.7,1193.7,561.8,1193.1,560.1z M1186.9,569.6c-0.3,1.2-0.7,2.3-1.2,3.3c-0.6,1-1.3,1.8-2.2,2.3
			c-1,0.6-2,0.9-3.3,0.9c-1.2,0-2.3-0.3-3.2-0.9c-0.9-0.6-1.7-1.3-2.2-2.3c-0.6-1-1-2.1-1.2-3.3c-0.3-1.2-0.4-2.5-0.4-3.9
			c0-1.4,0.1-2.6,0.4-3.9c0.3-1.2,0.7-2.3,1.2-3.3c0.6-1,1.3-1.8,2.2-2.3c0.9-0.6,2-0.9,3.2-0.9c1.2,0,2.3,0.3,3.3,0.9
			c0.9,0.6,1.7,1.4,2.2,2.3c0.6,1,1,2.1,1.2,3.3c0.3,1.2,0.4,2.5,0.4,3.8C1187.3,567.1,1187.2,568.4,1186.9,569.6z"/>
		<path class="st0" d="M1239.3,575.3h-0.6c-0.5,0-1-0.2-1.4-0.6c-0.4-0.4-0.6-0.9-0.6-1.4v-12.9c0-2.5-0.7-4.5-2.2-5.9
			c-1.5-1.4-3.4-2.1-5.9-2.1c-3.7,0-6.4,1.4-8.4,4.3c-0.4-1-1-1.8-1.8-2.5c-0.8-0.7-1.7-1.1-2.7-1.4c-1-0.3-2.1-0.4-3.3-0.4
			c-1.7,0-3.3,0.4-4.9,1.3c-1.6,0.9-2.8,2-3.6,3.3l0.5-3.3l-0.5-0.6h-1.6l-7.4,3l-0.4,0.5v1.2l0.5,0.5h0.6c0.5,0,1,0.2,1.4,0.6
			c0.4,0.4,0.6,0.9,0.6,1.4v12.9c0,0.5-0.2,1-0.6,1.4c-0.4,0.4-0.9,0.6-1.4,0.6h-0.6l-0.4,0.4v2.3l0.4,0.4h12.1l0.4-0.4v-2.3
			l-0.4-0.4h-0.6c-0.6,0-1-0.2-1.4-0.6c-0.4-0.4-0.6-0.9-0.6-1.4v-10.1c0-2,0.5-3.7,1.6-4.9c1-1.2,2.3-1.9,3.9-1.9c2.6,0,4,1.7,4,5
			v11.9c0,0.5-0.2,1-0.7,1.4c-0.4,0.4-0.9,0.6-1.4,0.6h-0.6l-0.4,0.4v2.3l0.4,0.4h12.1l0.4-0.4v-2.3l-0.4-0.4h-0.6
			c-0.5,0-1-0.2-1.4-0.6c-0.4-0.4-0.6-0.9-0.6-1.4v-10.1c0-2,0.5-3.7,1.5-4.9c1-1.2,2.3-1.9,3.9-1.9c1.3,0,2.3,0.4,3,1.3
			c0.7,0.9,1,2.1,1,3.7v11.9c0,0.5-0.2,1-0.6,1.4c-0.4,0.4-0.9,0.6-1.4,0.6h-0.6l-0.4,0.4v2.3l0.4,0.4h12.1l0.4-0.4v-2.3
			L1239.3,575.3z"/>
		<path class="st0" d="M1269.7,573.7h-0.4c-0.6,0-1-0.2-1.3-0.5c-0.3-0.4-0.5-0.9-0.5-1.5v-13.4l0.5-4.7l-0.5-0.6h-1.8l-3.1,3.3
			h-0.3c-0.9-1.1-2.1-2-3.6-2.9c-1.5-0.8-3.3-1.2-5.4-1.2c-2.5,0-4.7,0.6-6.8,1.8c-2,1.2-3.6,2.8-4.7,4.9c-1.1,2.1-1.7,4.3-1.7,6.7
			c0,1.6,0.2,3.1,0.7,4.6c0.4,1.4,1.1,2.7,1.9,3.7c0.8,1.1,1.7,2,2.8,2.7c1,0.8,2.1,1.4,3.3,1.7c1.2,0.4,2.4,0.6,3.6,0.6
			c1.9,0,3.4-0.3,4.6-0.8c1.2-0.5,2.3-1.3,3.4-2.3v2.3l0.6,0.5h1.6l7.6-3.1l0.2-0.1v-1.5L1269.7,573.7z M1260.3,569.3
			c-0.3,1.1-0.6,2.3-1.1,3.3c-0.5,1-1.3,1.9-2.2,2.5c-0.9,0.6-2,1-3.3,1s-2.4-0.3-3.3-1c-0.9-0.6-1.7-1.4-2.2-2.5s-0.9-2.1-1.1-3.3
			c-0.2-1.1-0.4-2.3-0.4-3.6c0-1.3,0.1-2.4,0.4-3.6c0.3-1.1,0.6-2.3,1.1-3.3c0.5-1,1.3-1.9,2.2-2.5s2-0.9,3.3-0.9s2.4,0.3,3.3,0.9
			c1,0.6,1.7,1.4,2.2,2.5c0.5,1,0.9,2.1,1.1,3.3c0.2,1.1,0.3,2.3,0.3,3.6C1260.7,567,1260.6,568.2,1260.3,569.3z"/>
		<path class="st0" d="M1289.5,553.5c-0.8-0.7-1.8-1.1-3.1-1.1c-1.6,0-3,0.5-4.2,1.4c-1.2,0.9-2.1,2.1-2.9,3.7l0.5-3.8l-0.5-0.6
			h-1.6l-7.4,3l-0.4,0.5v1.2l0.5,0.5h0.5c0.5,0,1,0.2,1.4,0.6c0.4,0.4,0.7,0.9,0.7,1.4v12.9c0,0.5-0.2,1-0.7,1.4
			c-0.4,0.4-0.9,0.6-1.4,0.6h-0.6l-0.4,0.4v2.3l0.4,0.4h12.1l0.4-0.4v-2.3l-0.4-0.4h-0.6c-0.5,0-1-0.2-1.4-0.6
			c-0.4-0.4-0.7-0.9-0.7-1.4v-9.5c0-1.7,0.3-3.2,0.9-4.6c0.6-1.3,1.4-2.3,2.3-2.9c0,1.1,0.4,2,1.1,2.8c0.7,0.8,1.6,1.2,2.7,1.2
			c1.1,0,2-0.4,2.7-1.1c0.7-0.7,1.1-1.7,1.1-2.8C1290.7,555.2,1290.3,554.3,1289.5,553.5z"/>
		<path class="st0" d="M1300.4,542.3c-0.9-0.8-1.9-1.3-3-1.3c-1.1,0-2.1,0.4-3,1.3c-0.9,0.9-1.3,1.9-1.3,3.1c0,1.1,0.4,2.1,1.3,3
			c0.8,0.8,1.8,1.2,3,1.2c1.2,0,2.2-0.4,3-1.2c0.9-0.9,1.3-1.8,1.3-3C1301.7,544.2,1301.3,543.1,1300.4,542.3z M1303.8,575.7
			l-0.3-0.3h-0.6c-0.5,0-1-0.2-1.4-0.6c-0.4-0.4-0.7-0.9-0.7-1.4v-15l0.5-4.7l-0.5-0.6h-1.5l-8.3,3.2v1.6l0.5,0.5h0.5
			c0.5,0,1,0.2,1.4,0.6c0.4,0.4,0.6,0.9,0.6,1.4v12.9c0,0.5-0.2,1-0.6,1.4c-0.4,0.4-0.9,0.6-1.4,0.6h-0.6l-0.4,0.4v2.3l0.4,0.4h12.1
			l0.3-0.3l0.1-0.1L1303.8,575.7L1303.8,575.7z"/>
		<path class="st0" d="M1333.6,575.3h-0.6c-0.5,0-1-0.2-1.4-0.6c-0.4-0.4-0.6-0.9-0.6-1.4v-12.1c0-2.9-0.8-5-2.4-6.5
			c-1.6-1.5-3.8-2.3-6.6-2.3c-1.9,0-3.6,0.4-5.1,1.2c-1.5,0.8-2.7,1.9-3.7,3.4l0.5-3.3l-0.5-0.6h-1.6l-7.4,3l-0.4,0.5v1.2l0.5,0.5
			h0.6c0.5,0,1,0.2,1.4,0.6c0.4,0.4,0.6,0.9,0.6,1.4v12.9c0,0.5-0.2,1-0.6,1.4c-0.4,0.4-0.9,0.6-1.4,0.6h-0.6l-0.3,0.3l-0.1,0.1v2.3
			l0.1,0.1l0.3,0.3h12.1l0.4-0.4v-2.3l-0.4-0.4h-0.6c-0.5,0-1-0.2-1.4-0.6c-0.4-0.4-0.6-0.9-0.6-1.4v-10.1c0-2,0.5-3.7,1.6-4.9
			c1.1-1.2,2.4-1.9,4.1-1.9c1.4,0,2.6,0.4,3.5,1.3c0.9,0.9,1.3,2.1,1.3,3.7v11.9c0,0.5-0.2,1-0.6,1.4c-0.4,0.4-0.9,0.6-1.4,0.6h-0.6
			l-0.4,0.4v2.3l0.4,0.4h12.1l0.4-0.4v-2.3L1333.6,575.3z"/>
		<path class="st0" d="M1360.4,569.2l-0.6-0.2l-0.6,0.2c-2.3,3.4-5.5,5.1-9.7,5.1c-2.3,0-4.2-0.6-5.8-1.9c-1.5-1.2-2.4-2.9-2.7-4.9
			l18.8-1.6l0.7-0.4c0-1.8-0.3-3.4-0.8-5c-0.5-1.6-1.3-3-2.3-4.2c-1-1.3-2.3-2.2-4-3s-3.5-1.1-5.6-1.1c-2.5,0-4.7,0.6-6.8,1.7
			c-2.1,1.1-3.7,2.7-5,4.8c-1.2,2-1.8,4.3-1.8,6.7c0,2.5,0.6,4.8,1.7,6.9c1.1,2.1,2.8,3.7,4.9,4.9c2.1,1.2,4.5,1.8,7.1,1.8
			c3.1,0,5.7-0.9,8-2.5c2.2-1.7,3.7-4,4.6-7L1360.4,569.2z M1343.1,557.9c1.3-1.6,2.9-2.4,5-2.4c1.7,0,3.1,0.6,4.1,1.7
			c1,1.1,1.6,2.6,1.6,4.4c0,0.6-0.2,1.1-0.5,1.5c-0.3,0.4-0.9,0.6-1.7,0.7l-10.4,0.8l-0.1-0.3
			C1341.1,561.6,1341.8,559.4,1343.1,557.9z"/>
		<path class="st0" d="M1141.1,621.6l-0.5-0.2l-0.6,0.2c-2.3,3.4-5.5,5.1-9.7,5.1c-2.3,0-4.3-0.6-5.8-1.9c-1.5-1.2-2.4-2.9-2.7-4.9
			l18.8-1.6l0.7-0.4c0-1.8-0.3-3.4-0.8-5c-0.5-1.6-1.3-2.9-2.3-4.2c-1-1.3-2.3-2.2-4-3c-1.6-0.7-3.5-1.1-5.6-1.1
			c-2.5,0-4.7,0.6-6.8,1.7c-2.1,1.1-3.7,2.7-5,4.8c-1.2,2-1.8,4.3-1.8,6.7c0,2.5,0.6,4.9,1.7,6.9c1.2,2.1,2.8,3.7,4.9,4.9
			c2.1,1.2,4.5,1.8,7.1,1.8c3.1,0,5.7-0.9,7.9-2.5c2.2-1.7,3.8-4,4.6-7L1141.1,621.6z M1123.8,610.3c1.2-1.6,2.9-2.4,5-2.4
			c1.7,0,3,0.6,4.1,1.7c1,1.1,1.6,2.6,1.6,4.4c0,0.6-0.2,1.1-0.5,1.5c-0.4,0.4-0.9,0.6-1.7,0.7l-10.4,0.8l-0.1-0.3
			C1121.8,614,1122.5,611.9,1123.8,610.3z"/>
		<path class="st0" d="M1168.4,627.8h-1.5c-0.4,0-0.6-0.1-0.9-0.3c-0.3-0.2-0.5-0.5-0.8-0.9l-7.7-10l5.4-6.7
			c0.4-0.6,0.9-0.9,1.2-1.1c0.4-0.2,0.9-0.3,1.4-0.3h0.9l0.4-0.4v-2.3l-0.4-0.4h-8.9l-0.4,0.4v2.3l0.4,0.4h0.6
			c0.4,0,0.7,0.1,0.9,0.3c0.3,0.2,0.4,0.5,0.4,0.8c0,0.3-0.1,0.6-0.4,1l-3.1,3.9l-2.9-3.9c-0.2-0.4-0.4-0.7-0.4-1s0.1-0.6,0.3-0.8
			c0.2-0.2,0.5-0.3,0.9-0.3h0.5l0.4-0.4v-2.3l-0.4-0.4h-11.9l-0.4,0.4v2.3l0.4,0.4h1.1c0.3,0,0.5,0.1,0.8,0.2
			c0.2,0.1,0.4,0.3,0.6,0.4c0.1,0.1,0.3,0.4,0.6,0.8l6.9,9l-6.2,7.7c-0.3,0.3-0.6,0.6-0.9,0.8c-0.3,0.2-0.8,0.3-1.4,0.3h-2l-0.4,0.4
			v2.2l0.4,0.4h10.5l0.4-0.4v-2.2l-0.4-0.4h-1c-0.9,0-1.3-0.3-1.3-1c0-0.3,0.1-0.7,0.4-1.1l3.7-4.5l3.5,4.5c0.2,0.3,0.4,0.6,0.4,1
			c0,0.3-0.1,0.6-0.3,0.8c-0.2,0.2-0.5,0.3-0.9,0.3h-1l-0.4,0.4v2.2l0.4,0.4h12.8l0.4-0.4v-2.2L1168.4,627.8z"/>
		<path class="st0" d="M1195.6,608.3c-2.3-2.4-5.3-3.6-9-3.6c-1.8,0-3.4,0.4-5,1.3c-1.5,0.8-2.7,1.9-3.7,3.3l0.5-3.3l-0.5-0.6h-1.6
			l-7.4,3.1l-0.4,0.5v1.2l0.5,0.5h0.5c0.5,0,1,0.2,1.4,0.6c0.4,0.4,0.7,0.9,0.7,1.4v24.5c0,0.5-0.2,1-0.7,1.4
			c-0.4,0.4-0.9,0.6-1.4,0.6h-0.6l-0.4,0.4v2.3l0.4,0.4h12.1l0.4-0.4v-2.3l-0.4-0.4h-0.6c-0.5,0-1-0.2-1.4-0.6
			c-0.4-0.4-0.6-0.9-0.6-1.4v-9.1c1,1,2.1,1.8,3.6,2.4c1.4,0.6,2.9,1,4.5,1c1.7,0,3.4-0.3,4.9-0.9c1.5-0.6,2.8-1.5,4-2.6
			c1.1-1.1,2-2.5,2.7-4.2c0.7-1.7,1-3.6,1-5.7C1199,614,1197.9,610.7,1195.6,608.3z M1191.9,622c-0.3,1.2-0.6,2.3-1.2,3.3
			c-0.5,1-1.3,1.8-2.2,2.4c-1,0.6-2.1,0.9-3.3,0.9c-1.2,0-2.3-0.3-3.3-0.9c-0.9-0.6-1.7-1.4-2.2-2.4c-0.6-1-1-2.1-1.2-3.3
			c-0.3-1.2-0.4-2.5-0.4-3.9c0-1.4,0.1-2.6,0.4-3.9c0.3-1.2,0.7-2.3,1.2-3.3c0.5-1,1.3-1.8,2.2-2.3c0.9-0.6,2-0.9,3.2-0.9
			c1.3,0,2.4,0.3,3.3,0.9c0.9,0.6,1.7,1.3,2.2,2.3c0.6,1,0.9,2.1,1.2,3.3c0.3,1.2,0.4,2.5,0.4,3.9
			C1192.3,619.6,1192.2,620.9,1191.9,622z"/>
		<path class="st0" d="M1226,621.6l-0.6-0.2l-0.5,0.2c-2.3,3.4-5.5,5.1-9.7,5.1c-2.3,0-4.3-0.6-5.8-1.9c-1.6-1.2-2.4-2.9-2.7-4.9
			l18.7-1.6l0.7-0.4c0-1.8-0.3-3.4-0.8-5s-1.3-2.9-2.3-4.2c-1-1.3-2.3-2.2-4-3c-1.6-0.7-3.5-1.1-5.6-1.1c-2.4,0-4.7,0.6-6.8,1.7
			c-2.1,1.1-3.7,2.7-4.9,4.8c-1.2,2-1.9,4.3-1.9,6.7c0,2.5,0.6,4.9,1.7,6.9c1.1,2.1,2.8,3.7,4.9,4.9c2.1,1.2,4.5,1.8,7.2,1.8
			c3.1,0,5.7-0.9,7.9-2.5c2.2-1.7,3.7-4,4.6-7L1226,621.6z M1208.6,610.3c1.3-1.6,3-2.4,5.1-2.4c1.7,0,3,0.6,4.1,1.7
			c1,1.1,1.6,2.6,1.6,4.4c0,0.6-0.2,1.1-0.6,1.5c-0.3,0.4-0.9,0.6-1.7,0.7l-10.3,0.8l-0.1-0.3C1206.7,614,1207.4,611.9,1208.6,610.3
			z"/>
		<path class="st0" d="M1245.8,605.9c-0.8-0.7-1.9-1.1-3.1-1.1c-1.6,0-3,0.5-4.2,1.4c-1.2,0.9-2.2,2.1-2.9,3.7l0.5-3.8l-0.5-0.6
			h-1.6l-7.4,3l-0.4,0.6v1.1l0.5,0.5h0.5c0.5,0,1,0.2,1.4,0.6c0.4,0.4,0.6,0.9,0.6,1.4v13c0,0.5-0.2,1-0.6,1.4
			c-0.4,0.4-0.9,0.6-1.4,0.6h-0.6l-0.4,0.4v2.2l0.4,0.4h12.1l0.4-0.4v-2.2l-0.4-0.4h-0.6c-0.5,0-1-0.2-1.4-0.6
			c-0.4-0.4-0.6-0.9-0.6-1.4v-9.5c0-1.7,0.3-3.2,0.9-4.6c0.6-1.4,1.4-2.3,2.3-2.9c0,1.1,0.4,2,1.1,2.8c0.7,0.7,1.6,1.1,2.7,1.1
			c1.1,0,2-0.4,2.7-1.1c0.7-0.8,1.1-1.7,1.1-2.8C1247,607.6,1246.6,606.7,1245.8,605.9z"/>
		<path class="st0" d="M1256.7,594.7c-0.9-0.8-1.9-1.3-3-1.3c-1.2,0-2.1,0.4-3,1.3c-0.8,0.9-1.2,1.9-1.2,3.1c0,1.1,0.4,2.1,1.2,3
			c0.9,0.8,1.8,1.2,3,1.2c1.2,0,2.2-0.4,3-1.2s1.3-1.8,1.3-3C1258,596.6,1257.6,595.6,1256.7,594.7z M1259.7,627.8h-0.6
			c-0.5,0-1-0.2-1.4-0.6c-0.4-0.4-0.6-0.9-0.6-1.4v-15l0.5-4.7l-0.5-0.6h-1.5l-8.3,3.2v1.6l0.5,0.5h0.5c0.5,0,1,0.2,1.4,0.6
			c0.4,0.4,0.6,0.9,0.6,1.4v13c0,0.5-0.2,1-0.6,1.4c-0.4,0.4-0.9,0.6-1.4,0.6h-0.6l-0.4,0.4v2.2l0.4,0.4h12.1l0.4-0.4v-2.2
			L1259.7,627.8z"/>
		<path class="st0" d="M1286.6,621.6l-0.6-0.2l-0.5,0.2c-2.3,3.4-5.5,5.1-9.7,5.1c-2.3,0-4.2-0.6-5.8-1.9c-1.5-1.2-2.4-2.9-2.7-4.9
			l18.7-1.6l0.7-0.4c0-1.8-0.3-3.4-0.8-5c-0.5-1.6-1.3-2.9-2.3-4.2c-1-1.3-2.3-2.2-4-3c-1.6-0.7-3.5-1.1-5.6-1.1
			c-2.4,0-4.7,0.6-6.8,1.7c-2.1,1.1-3.7,2.7-4.9,4.8c-1.2,2-1.9,4.3-1.9,6.7c0,2.5,0.6,4.9,1.7,6.9c1.1,2.1,2.8,3.7,4.9,4.9
			c2.1,1.2,4.5,1.8,7.1,1.8c3.1,0,5.7-0.9,8-2.5c2.2-1.7,3.7-4,4.6-7L1286.6,621.6z M1269.2,610.3c1.3-1.6,2.9-2.4,5-2.4
			c1.7,0,3.1,0.6,4.1,1.7c1,1.1,1.5,2.6,1.5,4.4c0,0.6-0.1,1.1-0.5,1.5c-0.3,0.4-0.9,0.6-1.7,0.7l-10.3,0.8l-0.1-0.3
			C1267.3,614,1268,611.9,1269.2,610.3z"/>
		<path class="st0" d="M1316.8,627.8h-0.6c-0.5,0-1-0.2-1.4-0.6c-0.4-0.4-0.7-0.9-0.7-1.4v-12.2c0-2.9-0.8-5-2.4-6.5
			c-1.6-1.5-3.8-2.3-6.6-2.3c-1.9,0-3.6,0.4-5.1,1.2c-1.5,0.8-2.7,1.9-3.7,3.4l0.5-3.3l-0.5-0.6h-1.6l-7.4,3l-0.4,0.6v1.1l0.5,0.5
			h0.5c0.5,0,1,0.2,1.4,0.6c0.4,0.4,0.6,0.9,0.6,1.4v13c0,0.5-0.2,1-0.6,1.4c-0.4,0.4-0.9,0.6-1.4,0.6h-0.6l-0.4,0.4v2.2l0.4,0.4
			h12.1l0.4-0.4v-2.2l-0.4-0.4h-0.6c-0.5,0-1-0.2-1.4-0.6c-0.4-0.4-0.6-0.9-0.6-1.4v-10.1c0-2.1,0.6-3.7,1.6-4.9
			c1.1-1.2,2.4-1.9,4.1-1.9c1.4,0,2.6,0.4,3.5,1.3c0.9,0.9,1.3,2.1,1.3,3.7v12c0,0.5-0.2,1-0.7,1.4c-0.4,0.4-0.9,0.6-1.4,0.6h-0.6
			l-0.4,0.4v2.2l0.4,0.4h12.1l0.4-0.4v-2.2L1316.8,627.8z"/>
		<path class="st0" d="M1341,622.5l-0.6-0.2l-0.5,0.2c-1.7,3-4.1,4.5-7.4,4.5c-1.7,0-3.1-0.4-4.4-1.3c-1.2-0.9-2.1-2-2.8-3.3
			c-0.6-1.4-0.9-2.9-0.9-4.6c0-1.3,0.1-2.5,0.4-3.7c0.3-1.1,0.7-2.2,1.2-3.1c0.6-1,1.3-1.7,2.2-2.3c0.9-0.6,2-0.9,3.3-0.9
			c1.6,0,2.9,0.4,3.9,1.3c1,0.9,1.5,2.1,1.5,3.6v0.9l0.4,0.4h2l0.4-0.4l-0.3-6.4l-0.4-0.6c-2.1-1.3-4.7-2-7.7-2
			c-1.8,0-3.5,0.3-5.1,1c-1.6,0.6-3.1,1.5-4.4,2.6c-1.3,1.1-2.3,2.6-3.1,4.3c-0.8,1.7-1.1,3.6-1.1,5.6c0,2,0.4,3.9,1,5.6
			c0.7,1.7,1.7,3.1,2.8,4.2c1.2,1.1,2.6,2,4.1,2.6c1.5,0.6,3.1,0.9,4.8,0.9c1.6,0,3.1-0.2,4.4-0.7c1.3-0.4,2.3-1.1,3.2-1.9
			c0.9-0.9,1.5-1.7,2-2.7c0.5-1,1-2,1.3-3.3L1341,622.5z"/>
		<path class="st0" d="M1367.7,621.6l-0.6-0.2l-0.5,0.2c-2.3,3.4-5.5,5.1-9.7,5.1c-2.3,0-4.2-0.6-5.7-1.9c-1.6-1.2-2.4-2.9-2.7-4.9
			l18.7-1.6l0.7-0.4c0-1.8-0.3-3.4-0.8-5c-0.5-1.6-1.3-2.9-2.3-4.2c-1-1.3-2.3-2.2-4-3c-1.6-0.7-3.5-1.1-5.6-1.1
			c-2.4,0-4.7,0.6-6.8,1.7c-2.1,1.1-3.7,2.7-4.9,4.8c-1.2,2-1.9,4.3-1.9,6.7c0,2.5,0.6,4.9,1.7,6.9c1.1,2.1,2.8,3.7,4.9,4.9
			c2.1,1.2,4.5,1.8,7.2,1.8c3.1,0,5.7-0.9,7.9-2.5c2.2-1.7,3.7-4,4.6-7L1367.7,621.6z M1350.4,610.3c1.3-1.6,3-2.4,5.1-2.4
			c1.7,0,3,0.6,4.1,1.7c1,1.1,1.6,2.6,1.6,4.4c0,0.6-0.2,1.1-0.6,1.5c-0.3,0.4-0.9,0.6-1.7,0.7l-10.3,0.8l-0.1-0.3
			C1348.5,614,1349.1,611.9,1350.4,610.3z"/>
	</g>
</g>
</svg>
