<?xml version="1.0" encoding="utf-8"?>
<!-- Generator: Adobe Illustrator 22.0.1, SVG Export Plug-In . SVG Version: 6.00 Build 0)  -->
<svg version="1.1" id="Calque_1" xmlns="http://www.w3.org/2000/svg" xmlns:xlink="http://www.w3.org/1999/xlink" x="0px" y="0px"
	 viewBox="0 0 1920 1080" style="enable-background:new 0 0 1920 1080;" xml:space="preserve">
<style type="text/css">
	.st0{fill:#FFFFFF;stroke:#000000;stroke-miterlimit:10;}
	.st1{fill:#0C00FF;}
	.st2{fill:#FFFFFF;}
</style>
<rect y="605.3" class="st0" width="429.8" height="474.7"/>
<rect x="429.8" class="st0" width="536.1" height="605.3"/>
<rect x="965.9" y="605.3" class="st1" width="954.1" height="474.7"/>
<rect width="429.8" height="605.3"/>
<rect x="965.9" width="954.1" height="605.3"/>
<rect x="429.8" y="605.3" width="536.1" height="474.7"/>
<g>
	<g>
		<path class="st2" d="M1283.3,507.8c-2,0-3.1-1.1-3.1-2.9v-50.8h-15v8.1h-1.1c-2.9-4.1-9-9.8-20.1-9.8c-17.7,0-30.9,14.7-30.9,34.8
			c0,20.1,13.4,34.8,31.3,34.8c11.5,0,17.4-6,19.9-10h1.1c0.5,4.3,3.5,8.4,9.5,8.4h11.3v-12.7L1283.3,507.8L1283.3,507.8z
			 M1247.1,507.7c-10.5,0-18.8-7.7-18.8-20.3c0-12.3,8-20.7,18.6-20.7c10.1,0,18.6,7.5,18.6,20.7
			C1265.6,498.7,1258.3,507.7,1247.1,507.7z"/>
		<path class="st2" d="M1312.4,472.7c0-3.9,3.8-6.7,10.1-6.7c6.3,0,10.6,2.7,11.9,8.5l13.3-3.7c-2.4-11.9-12.4-18.4-25.2-18.4
			c-15.1,0-24.5,8.7-24.5,20c0,27,36,15.7,36,29.1c0,4.4-3.8,7.1-11,7.1c-7,0-11.8-3.3-13.2-10.3l-14.2,3.2
			c1.8,13.5,12.5,20.5,27,20.5c16.3,0,26.7-8.9,26.7-21.9C1349.4,473.5,1312.4,485.1,1312.4,472.7z"/>
		<path class="st2" d="M1425.3,486.9c0-19.8-12.3-34.5-32.6-34.5c-17.9,0-33.2,14.1-33.2,35c0,20.3,13.6,34.7,33.8,34.7
			c13.8,0,26-6.8,30.3-20.6l-13.7-3.3c-2.4,7.4-9.4,11.2-16.7,11.2c-10.9,0-18.1-7.1-18.2-18.3h50.3L1425.3,486.9L1425.3,486.9z
			 M1375.2,480.2c0.9-8,8.1-14.7,17.6-14.7c9.1,0,16.6,5.7,17.4,14.7H1375.2z"/>
	</g>
	<rect x="1149.9" y="512.6" class="st2" width="0.1" height="7.9"/>
	<rect x="1149.9" y="512.6" class="st2" width="0.1" height="7.9"/>
	<g>
		<path class="st2" d="M1421.8,432.4v-14.3h-287v102.4h15.1v-7.9h1.1c2.7,3.4,8.2,9.5,19.6,9.5c17.9,0,31.7-14.7,31.7-34.8
			c0-19.8-12.9-34.8-30.7-34.8c-11.8,0-17.6,6.3-20.5,10.1h-1.1v-30.2H1421.8z M1168.5,466.5c10.5,0,18.6,8.6,18.6,20.9
			c0,12.5-8.4,20.8-18.9,20.8c-10,0-16.9-7.5-18.2-17.1c-0.2-1.2-0.3-2.4-0.3-3.6c0-1.4,0.1-2.7,0.3-3.9
			C1151.6,472.7,1159.3,466.5,1168.5,466.5z"/>
	</g>
	<rect x="1149.9" y="512.6" class="st2" width="0.1" height="7.9"/>
	<g>
		<path class="st2" d="M1465,422.1c-0.4-1-0.9-1.7-1.5-2.4c-0.6-0.6-1.4-1.1-2.2-1.4c-0.8-0.4-1.8-0.5-2.7-0.5
			c-1.8,0-3.3,0.6-4.5,1.8v-4.9l0.3-2.6l-0.3-0.3h-0.8l-4.7,1.8v0.9l0.3,0.3h0.3c0.3,0,0.6,0.1,0.8,0.4c0.2,0.2,0.4,0.5,0.4,0.8
			v13.7c0,0.3-0.1,0.6-0.4,0.8c-0.2,0.2-0.5,0.4-0.8,0.4h-0.4l-0.2,0.2v1.3l0.2,0.2h5l0.2-0.2v-1.3c1.1,1.3,2.7,1.9,4.6,1.9
			c2,0,3.7-0.7,5-2.1s2-3.2,2-5.4C1465.5,424.1,1465.3,423,1465,422.1z M1461.5,427.4c-0.1,0.7-0.4,1.3-0.7,1.8
			c-0.3,0.6-0.7,1-1.2,1.3s-1.1,0.5-1.8,0.5s-1.3-0.1-1.8-0.5c-0.5-0.3-0.9-0.7-1.2-1.3c-0.3-0.6-0.5-1.2-0.7-1.8
			c-0.1-0.7-0.2-1.4-0.2-2.2c0-0.8,0.1-1.5,0.2-2.2s0.4-1.3,0.7-1.8c0.3-0.6,0.7-1,1.2-1.3s1.1-0.5,1.8-0.5s1.3,0.2,1.8,0.5
			s0.9,0.7,1.2,1.3c0.3,0.6,0.5,1.2,0.7,1.8c0.2,0.7,0.2,1.4,0.2,2.1C1461.8,426,1461.7,426.7,1461.5,427.4z"/>
		<path class="st2" d="M1481.6,422.3c-0.4-0.9-1-1.7-1.7-2.4c-0.7-0.7-1.5-1.2-2.5-1.6s-2-0.6-3-0.6s-2,0.2-3,0.6s-1.8,0.9-2.5,1.6
			s-1.2,1.5-1.7,2.4c-0.4,0.9-0.6,1.9-0.6,3c0,1.4,0.4,2.6,1.1,3.8c0.7,1.1,1.6,2,2.8,2.7c1.2,0.7,2.5,1,3.9,1s2.7-0.3,3.9-1
			c1.2-0.6,2.2-1.6,2.8-2.7c0.7-1.2,1.1-2.4,1.1-3.8C1482.2,424.2,1482,423.2,1481.6,422.3z M1477.4,429.4c-0.7,1.1-1.7,1.6-3,1.6
			s-2.3-0.5-2.9-1.6c-0.7-1.1-1-2.4-1-4.2c0-1.7,0.3-3.1,1-4.2s1.7-1.6,2.9-1.6c1.3,0,2.3,0.5,3,1.6s1,2.4,1,4.2
			S1478.1,428.3,1477.4,429.4z"/>
		<path class="st2" d="M1493.9,418.4c-0.5-0.4-1-0.6-1.7-0.6c-0.9,0-1.7,0.3-2.3,0.8c-0.7,0.5-1.2,1.2-1.6,2l0.3-2.1l-0.3-0.3h-0.9
			l-4.1,1.7l-0.2,0.3v0.7l0.3,0.3h0.3c0.3,0,0.6,0.1,0.8,0.4c0.2,0.2,0.4,0.5,0.4,0.8v7.2c0,0.3-0.1,0.6-0.4,0.8
			c-0.2,0.2-0.5,0.4-0.8,0.4h-0.4l-0.2,0.2v1.3l0.2,0.2h6.8l0.2-0.2V431l-0.2-0.2h-0.4c-0.3,0-0.6-0.1-0.8-0.4
			c-0.2-0.2-0.4-0.5-0.4-0.8v-5.3c0-1,0.2-1.8,0.5-2.6c0.4-0.8,0.8-1.3,1.3-1.6c0,0.6,0.2,1.2,0.6,1.6s0.9,0.6,1.5,0.6
			s1.1-0.2,1.5-0.6s0.6-0.9,0.6-1.6C1494.6,419.3,1494.4,418.8,1493.9,418.4z"/>
		<path class="st2" d="M1512.5,430.6h-0.3c-0.3,0-0.6-0.1-0.8-0.4c-0.2-0.2-0.4-0.5-0.4-0.8v-14.9l0.3-2.6l-0.3-0.3h-0.8l-4.7,1.8
			v0.9l0.3,0.3h0.3c0.3,0,0.6,0.1,0.8,0.4c0.2,0.2,0.4,0.5,0.4,0.8v3.8c-1.2-1.2-2.7-1.8-4.5-1.8c-1,0-1.9,0.2-2.7,0.5
			c-0.8,0.3-1.6,0.8-2.2,1.4s-1.1,1.4-1.5,2.4s-0.5,2-0.5,3.2c0,2.2,0.6,4,2,5.4c1.3,1.4,3,2.1,5,2.1c1.9,0,3.5-0.6,4.6-1.9v1.3
			l0.2,0.2h5l0.2-0.2v-1.3L1512.5,430.6z M1507.2,427.4c-0.2,0.7-0.4,1.3-0.7,1.8c-0.3,0.5-0.7,1-1.2,1.3s-1.1,0.5-1.8,0.5
			c-0.7,0-1.3-0.1-1.8-0.5c-0.5-0.3-0.9-0.7-1.2-1.3c-0.3-0.6-0.5-1.2-0.7-1.8c-0.1-0.7-0.2-1.4-0.2-2.2c0-0.8,0.1-1.5,0.2-2.2
			s0.4-1.3,0.7-1.8c0.3-0.6,0.7-1,1.2-1.3s1.1-0.5,1.8-0.5c0.7,0,1.3,0.2,1.8,0.5s1,0.8,1.2,1.3c0.3,0.6,0.5,1.2,0.7,1.8
			c0.1,0.7,0.2,1.4,0.2,2.2C1507.4,426,1507.3,426.7,1507.2,427.4z"/>
		<path class="st2" d="M1528.1,427.1l-0.3-0.1l-0.3,0.1c-1.3,1.9-3.1,2.9-5.4,2.9c-1.3,0-2.4-0.4-3.2-1c-0.8-0.7-1.4-1.6-1.5-2.8
			l10.5-0.9l0.4-0.2c0-1-0.1-1.9-0.4-2.8s-0.7-1.7-1.3-2.3c-0.6-0.7-1.3-1.3-2.2-1.7c-0.9-0.4-1.9-0.6-3.1-0.6c-1.4,0-2.6,0.3-3.8,1
			c-1.2,0.6-2.1,1.5-2.8,2.7c-0.7,1.1-1,2.4-1,3.7c0,1.4,0.3,2.7,1,3.8c0.6,1.2,1.6,2.1,2.7,2.7c1.2,0.7,2.5,1,4,1
			c1.7,0,3.2-0.5,4.4-1.4c1.2-0.9,2.1-2.2,2.6-3.9L1528.1,427.1z M1518.4,420.8c0.7-0.9,1.6-1.4,2.8-1.4c1,0,1.7,0.3,2.3,1
			c0.6,0.6,0.8,1.4,0.8,2.5c0,0.3-0.1,0.6-0.3,0.8c-0.2,0.2-0.5,0.4-1,0.4l-5.8,0.5l-0.1-0.2
			C1517.4,422.9,1517.7,421.7,1518.4,420.8z"/>
		<path class="st2" d="M1545.9,429.7h-0.2c-0.3,0-0.6-0.1-0.7-0.3c-0.2-0.2-0.3-0.5-0.3-0.8v-7.5l0.3-2.6l-0.3-0.3h-1l-1.7,1.8h-0.1
			c-0.5-0.6-1.2-1.1-2-1.6c-0.8-0.4-1.8-0.7-3-0.7c-1.4,0-2.6,0.3-3.8,1c-1.1,0.7-2,1.6-2.6,2.7s-1,2.4-1,3.8c0,0.9,0.1,1.8,0.4,2.6
			c0.3,0.8,0.6,1.5,1.1,2.1c0.4,0.6,1,1.1,1.5,1.5c0.6,0.4,1.2,0.8,1.9,1c0.7,0.2,1.3,0.3,2,0.3c1.1,0,1.9-0.1,2.6-0.4
			s1.3-0.7,1.9-1.3v1.3l0.3,0.3h0.9l4.3-1.8v-0.9L1545.9,429.7z M1540.6,427.2c-0.1,0.6-0.4,1.3-0.6,1.8c-0.3,0.6-0.7,1-1.2,1.4
			s-1.1,0.5-1.8,0.5c-0.7,0-1.3-0.2-1.8-0.5c-0.5-0.4-0.9-0.8-1.2-1.4c-0.3-0.6-0.5-1.2-0.6-1.8c-0.1-0.6-0.2-1.3-0.2-2
			s0.1-1.4,0.2-2s0.4-1.3,0.6-1.8c0.3-0.6,0.7-1,1.2-1.4s1.1-0.5,1.8-0.5c0.7,0,1.3,0.2,1.8,0.5c0.5,0.4,0.9,0.8,1.2,1.4
			c0.3,0.6,0.5,1.2,0.6,1.8c0.1,0.6,0.2,1.3,0.2,2C1540.8,425.9,1540.7,426.6,1540.6,427.2z"/>
		<path class="st2" d="M1563.3,429.7h-0.3c-0.3,0-0.5-0.1-0.8-0.3c-0.2-0.2-0.4-0.5-0.4-0.7v-7.5l0.3-2.6l-0.3-0.3h-0.8l-4.7,1.8
			v0.9l0.3,0.3h0.3c0.3,0,0.6,0.1,0.8,0.4c0.2,0.2,0.4,0.5,0.4,0.8v4.5c0,1.1-0.3,2-0.9,2.7s-1.4,1-2.3,1c-0.8,0-1.5-0.2-2-0.7
			s-0.7-1.1-0.7-2v-6.6l0.3-2.6l-0.3-0.3h-0.8l-4.7,1.8v0.9l0.3,0.3h0.3c0.3,0,0.6,0.1,0.8,0.4c0.2,0.2,0.4,0.5,0.4,0.8v5.6
			c0,1.6,0.5,2.8,1.4,3.7c0.9,0.8,2.1,1.3,3.7,1.3c0.9,0,1.8-0.2,2.6-0.6c0.8-0.4,1.5-0.9,2-1.6v1.8l0.3,0.3h0.9l4.4-1.8v-0.9
			L1563.3,429.7z"/>
		<path class="st2" d="M1579.2,430.6h-0.8c-0.2,0-0.4-0.1-0.5-0.1c-0.1-0.1-0.3-0.3-0.4-0.5l-4.3-5.5l3-3.7c0.3-0.3,0.5-0.5,0.7-0.6
			s0.5-0.2,0.8-0.2h0.5l0.2-0.2v-1.3l-0.2-0.2h-5l-0.2,0.2v1.3l0.2,0.2h0.4c0.2,0,0.4,0.1,0.5,0.2s0.2,0.3,0.2,0.5s-0.1,0.4-0.2,0.6
			l-1.7,2.2l-1.6-2.2c-0.1-0.2-0.2-0.4-0.2-0.6s0.1-0.3,0.2-0.5c0.1-0.1,0.3-0.2,0.5-0.2h0.3l0.2-0.2v-1.3l-0.2-0.2h-6.6l-0.2,0.2
			v1.3l0.2,0.2h0.6c0.1,0,0.3,0,0.4,0.1s0.2,0.2,0.3,0.3c0.1,0.1,0.2,0.2,0.3,0.4l3.9,5l-3.5,4.3c-0.2,0.2-0.3,0.4-0.5,0.5
			s-0.5,0.2-0.8,0.2h-1.1l-0.2,0.2v1.3l0.2,0.2h5.8l0.2-0.2V431l-0.2-0.2h-0.6c-0.5,0-0.7-0.2-0.7-0.6c0-0.2,0.1-0.4,0.2-0.6l2-2.5
			l1.9,2.5c0.1,0.1,0.2,0.4,0.2,0.6s0,0.4-0.2,0.5c-0.1,0.1-0.3,0.2-0.5,0.2h-0.6l-0.2,0.2v1.3l0.2,0.2h7.2l0.2-0.2v-1.3
			L1579.2,430.6z"/>
		<path class="st2" d="M1465.4,459h-0.2c-0.3,0-0.6-0.1-0.7-0.3c-0.2-0.2-0.3-0.5-0.3-0.8v-7.5l0.3-2.6l-0.3-0.3h-1l-1.7,1.9h-0.1
			c-0.5-0.6-1.2-1.1-2-1.6c-0.8-0.4-1.8-0.7-3-0.7c-1.4,0-2.6,0.4-3.8,1c-1.1,0.7-2,1.6-2.6,2.7c-0.6,1.2-1,2.4-1,3.8
			c0,0.9,0.1,1.8,0.4,2.6c0.2,0.8,0.6,1.5,1.1,2.1s1,1.1,1.6,1.5s1.2,0.8,1.9,1c0.7,0.2,1.3,0.3,2,0.3c1.1,0,1.9-0.1,2.6-0.4
			s1.3-0.7,1.9-1.3v1.3l0.3,0.3h0.9l4.2-1.7h0.1v-0.8L1465.4,459z M1460.1,456.5c-0.1,0.6-0.4,1.3-0.6,1.8c-0.3,0.6-0.7,1-1.2,1.4
			s-1.1,0.5-1.8,0.5c-0.7,0-1.3-0.2-1.8-0.5c-0.5-0.4-0.9-0.8-1.2-1.4c-0.3-0.6-0.5-1.2-0.6-1.8c-0.1-0.6-0.2-1.3-0.2-2
			s0.1-1.4,0.2-2s0.4-1.3,0.6-1.8c0.3-0.6,0.7-1,1.2-1.4s1.1-0.5,1.8-0.5c0.7,0,1.3,0.2,1.8,0.5c0.5,0.4,0.9,0.8,1.2,1.4
			c0.3,0.6,0.5,1.2,0.6,1.8c0.1,0.6,0.2,1.3,0.2,2C1460.3,455.2,1460.3,455.9,1460.1,456.5z"/>
		<path class="st2" d="M1477.1,449c0-0.2,0-0.4-0.1-0.5c-0.1-0.3-0.3-0.6-0.5-0.9c-0.5-0.4-1-0.6-1.7-0.6c-0.9,0-1.7,0.3-2.3,0.8
			c-0.7,0.5-1.2,1.2-1.6,2l0.3-2.1l-0.3-0.3h-0.9l-4.1,1.7l-0.2,0.3v0.7l0.3,0.3h0.3c0.3,0,0.6,0.1,0.8,0.4c0.2,0.2,0.4,0.5,0.4,0.8
			v7.2c0,0.3-0.1,0.6-0.4,0.8c-0.2,0.2-0.5,0.4-0.8,0.4h-0.4l-0.1,0.1l-0.1,0.1v1.3l0.2,0.2h6.8l0.2-0.2v-1.3l-0.2-0.2h-0.4
			c-0.3,0-0.6-0.1-0.8-0.4c-0.2-0.2-0.4-0.5-0.4-0.8v-5.3c0-1,0.2-1.8,0.5-2.6c0.4-0.8,0.8-1.3,1.3-1.6c0,0.6,0.2,1.1,0.6,1.6
			c0.4,0.4,0.9,0.7,1.5,0.7s1.1-0.2,1.5-0.6s0.6-0.9,0.6-1.6C1477.1,449.2,1477.1,449.1,1477.1,449z"/>
		<path class="st2" d="M1488.3,458l-0.3-0.1l-0.3,0.1c-0.4,1.3-1.2,1.9-2.4,1.9c-0.7,0-1.2-0.2-1.6-0.7s-0.6-1.1-0.6-2v-8.1h3.6
			l0.2-0.2v-1.3l-0.2-0.2h-3.6l0.3-3.8l-0.3-0.3h-0.4l-5.7,4.9v0.6l0.1,0.1l0.1,0.1h1c0.3,0,0.5,0.1,0.8,0.3
			c0.2,0.2,0.4,0.5,0.4,0.8v7c0,0.8,0.1,1.6,0.4,2.2c0.2,0.6,0.6,1.1,1,1.5s0.9,0.6,1.5,0.8c0.5,0.2,1.1,0.3,1.8,0.3
			c0.7,0,1.2-0.1,1.7-0.2c0.5-0.2,0.9-0.4,1.2-0.6c0.3-0.2,0.6-0.5,0.8-0.9c0.2-0.4,0.4-0.7,0.5-1s0.2-0.7,0.3-1.1L1488.3,458z"/>
		<path class="st2" d="M1498.8,455.7c-0.2-0.5-0.5-0.8-0.9-1.2c-0.4-0.3-0.8-0.6-1.2-0.7c-0.4-0.2-0.9-0.4-1.6-0.6
			c-1-0.4-1.8-0.7-2.3-1.2c-0.5-0.4-0.7-1-0.7-1.6s0.2-1.1,0.6-1.4c0.4-0.4,0.9-0.5,1.6-0.5c0.8,0,1.4,0.3,1.8,0.8s0.6,1.2,0.6,2
			l0.3,0.3h0.9l0.3-0.3l-0.1-3.2l-0.2-0.3c-1.1-0.5-2.3-0.8-3.8-0.8s-2.8,0.4-3.7,1.2c-1,0.8-1.5,1.9-1.5,3.2c0,0.9,0.3,1.8,0.9,2.4
			c0.6,0.7,1.4,1.2,2.5,1.6c0.5,0.2,0.8,0.3,1.1,0.4c0.2,0.1,0.5,0.2,0.8,0.4c0.3,0.1,0.5,0.3,0.6,0.5s0.3,0.4,0.4,0.6
			s0.1,0.5,0.1,0.8s-0.1,0.7-0.2,1c-0.1,0.4-0.4,0.7-0.7,1c-0.4,0.3-0.8,0.4-1.3,0.4c-0.8,0-1.4-0.3-1.9-0.8
			c-0.4-0.6-0.6-1.3-0.6-2.3l-0.3-0.3h-0.8l-0.3,0.3l-0.8,3.1l0.1,0.3c1.3,0.8,3,1.3,4.9,1.3c1,0,2-0.2,2.8-0.5s1.5-0.8,2.1-1.6
			c0.6-0.7,0.8-1.6,0.8-2.6C1499,456.7,1498.9,456.1,1498.8,455.7z"/>
		<path class="st2" d="M1459.1,485c-0.2-0.5-0.5-0.8-0.9-1.2c-0.4-0.3-0.8-0.6-1.2-0.7c-0.4-0.2-0.9-0.4-1.6-0.6
			c-1-0.4-1.8-0.7-2.3-1.2c-0.5-0.4-0.7-1-0.7-1.6s0.2-1.1,0.6-1.4c0.4-0.4,0.9-0.5,1.6-0.5c0.8,0,1.4,0.3,1.8,0.8s0.6,1.2,0.6,2
			l0.3,0.3h0.9l0.3-0.3l-0.1-3.1l-0.2-0.3c-1.1-0.5-2.3-0.8-3.8-0.8s-2.8,0.4-3.7,1.2c-1,0.8-1.5,1.9-1.5,3.2c0,0.9,0.3,1.8,0.9,2.4
			c0.6,0.7,1.4,1.2,2.5,1.6c0.5,0.2,0.8,0.3,1.1,0.4c0.2,0.1,0.5,0.2,0.8,0.4c0.3,0.1,0.5,0.3,0.6,0.5s0.3,0.4,0.4,0.6
			s0.1,0.5,0.1,0.8s-0.1,0.7-0.2,1c-0.1,0.4-0.4,0.7-0.7,1c-0.4,0.3-0.8,0.4-1.3,0.4c-0.8,0-1.4-0.3-1.9-0.8
			c-0.4-0.6-0.6-1.3-0.6-2.3l-0.3-0.3h-0.8l-0.3,0.3l-0.8,3.1l0.1,0.3c1.3,0.8,3,1.3,4.9,1.3c1,0,2-0.2,2.8-0.5s1.5-0.8,2.1-1.6
			c0.6-0.7,0.8-1.6,0.8-2.6C1459.4,486,1459.3,485.4,1459.1,485z"/>
		<path class="st2" d="M1475.7,488.3h-0.3c-0.3,0-0.5-0.1-0.8-0.3c-0.2-0.2-0.4-0.5-0.4-0.7v-7.5l0.3-2.6l-0.3-0.3h-0.8l-4.7,1.8
			v0.9l0.3,0.3h0.3c0.3,0,0.6,0.1,0.8,0.4c0.2,0.2,0.4,0.5,0.4,0.8v4.5c0,1.1-0.3,2-0.9,2.7s-1.4,1-2.3,1c-0.8,0-1.5-0.2-2-0.7
			s-0.7-1.1-0.7-2V480l0.3-2.6l-0.3-0.3h-0.8l-4.7,1.8v0.9l0.3,0.3h0.3c0.3,0,0.6,0.1,0.8,0.4c0.2,0.2,0.4,0.5,0.4,0.8v5.6
			c0,1.6,0.5,2.8,1.4,3.7c0.9,0.8,2.1,1.3,3.7,1.3c0.9,0,1.8-0.2,2.6-0.6c0.8-0.4,1.5-0.9,2-1.6v1.7l0.3,0.3h0.9l4.3-1.7h0.1v-0.9
			L1475.7,488.3z"/>
		<path class="st2" d="M1492.4,480.6c-0.4-1-0.9-1.7-1.5-2.4c-0.6-0.6-1.4-1.1-2.2-1.4c-0.8-0.3-1.8-0.5-2.7-0.5
			c-1.8,0-3.3,0.6-4.5,1.8v-4.9l0.3-2.6l-0.3-0.3h-0.9l-4.6,1.8v0.9l0.3,0.3h0.3c0.3,0,0.6,0.1,0.8,0.4c0.2,0.2,0.4,0.5,0.4,0.8V488
			c0,0.3-0.1,0.6-0.4,0.8c-0.2,0.2-0.5,0.4-0.8,0.4h-0.4l-0.1,0.1l-0.1,0.1v1.3l0.2,0.2h5.1l0.2-0.2v-1.3c1.1,1.3,2.6,1.9,4.6,1.9
			s3.7-0.7,5-2.1s2-3.2,2-5.4C1492.9,482.6,1492.8,481.6,1492.4,480.6z M1488.9,486c-0.1,0.7-0.4,1.3-0.7,1.8
			c-0.3,0.6-0.7,1-1.2,1.3s-1.1,0.5-1.8,0.5c-0.7,0-1.3-0.2-1.8-0.5s-0.9-0.7-1.2-1.3c-0.3-0.5-0.5-1.2-0.7-1.8
			c-0.1-0.7-0.2-1.4-0.2-2.2c0-0.8,0.1-1.5,0.2-2.2s0.4-1.3,0.7-1.8c0.3-0.5,0.7-1,1.2-1.3s1.1-0.5,1.8-0.5c0.7,0,1.3,0.1,1.8,0.5
			c0.5,0.3,0.9,0.8,1.2,1.3c0.3,0.6,0.5,1.2,0.7,1.8c0.1,0.7,0.2,1.4,0.2,2.1C1489.2,484.6,1489.1,485.3,1488.9,486z"/>
		<path class="st2" d="M1518.2,489.2h-0.4c-0.3,0-0.5-0.1-0.8-0.4c-0.2-0.2-0.4-0.5-0.4-0.8v-7.2c0-1.4-0.4-2.5-1.2-3.3
			c-0.8-0.8-1.9-1.2-3.3-1.2c-2,0-3.6,0.8-4.7,2.4c-0.2-0.6-0.6-1-1-1.4c-0.5-0.4-1-0.6-1.5-0.8c-0.6-0.2-1.2-0.2-1.8-0.2
			c-0.9,0-1.8,0.2-2.7,0.7c-0.9,0.5-1.6,1.1-2,1.9l0.3-1.9l-0.3-0.3h-0.9l-4.1,1.7l-0.2,0.3v0.7l0.3,0.3h0.3c0.3,0,0.6,0.1,0.8,0.4
			c0.2,0.2,0.4,0.5,0.4,0.8v7.2c0,0.3-0.1,0.6-0.4,0.8c-0.2,0.2-0.5,0.4-0.8,0.4h-0.4l-0.2,0.2v1.3l0.2,0.2h6.8l0.2-0.2v-1.3
			l-0.2-0.2h-0.3c-0.3,0-0.6-0.1-0.8-0.4c-0.2-0.2-0.4-0.5-0.4-0.8v-5.7c0-1.1,0.3-2,0.9-2.7s1.3-1,2.2-1c1.5,0,2.2,0.9,2.2,2.8v6.6
			c0,0.3-0.1,0.6-0.4,0.8c-0.2,0.2-0.5,0.4-0.8,0.4h-0.4l-0.2,0.2v1.3l0.2,0.2h6.8l0.2-0.2v-1.3l-0.2-0.2h-0.4
			c-0.3,0-0.6-0.1-0.8-0.4c-0.2-0.2-0.4-0.5-0.4-0.8v-5.7c0-1.1,0.3-2,0.8-2.7c0.6-0.7,1.3-1,2.2-1c0.7,0,1.3,0.2,1.7,0.7
			c0.4,0.5,0.6,1.2,0.6,2.1v6.6c0,0.3-0.1,0.6-0.4,0.8c-0.2,0.2-0.5,0.4-0.8,0.4h-0.4l-0.2,0.2v1.3l0.2,0.2h6.8l0.2-0.2v-1.3
			L1518.2,489.2z"/>
		<path class="st2" d="M1535.2,488.3h-0.2c-0.3,0-0.6-0.1-0.7-0.3c-0.2-0.2-0.3-0.5-0.3-0.8v-7.5l0.3-2.6l-0.3-0.3h-1l-1.8,1.9h-0.1
			c-0.5-0.6-1.2-1.1-2-1.6c-0.8-0.4-1.8-0.7-3-0.7c-1.4,0-2.6,0.4-3.8,1c-1.1,0.7-2,1.6-2.6,2.7c-0.6,1.2-1,2.4-1,3.8
			c0,0.9,0.1,1.8,0.4,2.6c0.2,0.8,0.6,1.5,1.1,2.1s1,1.1,1.6,1.5s1.2,0.8,1.9,1c0.7,0.2,1.3,0.3,2,0.3c1.1,0,1.9-0.1,2.6-0.4
			s1.3-0.7,1.9-1.3v1.3l0.3,0.3h0.9l4.2-1.7h0.1v-0.8L1535.2,488.3z M1529.9,485.8c-0.1,0.6-0.4,1.3-0.6,1.8c-0.3,0.6-0.7,1-1.2,1.4
			s-1.1,0.5-1.8,0.5c-0.7,0-1.3-0.2-1.8-0.5c-0.5-0.4-0.9-0.8-1.2-1.4c-0.3-0.6-0.5-1.2-0.6-1.8c-0.1-0.6-0.2-1.3-0.2-2
			s0.1-1.4,0.2-2s0.4-1.3,0.6-1.8c0.3-0.6,0.7-1,1.2-1.4s1.1-0.5,1.8-0.5c0.7,0,1.3,0.2,1.8,0.5c0.5,0.4,0.9,0.8,1.2,1.4
			c0.3,0.6,0.5,1.2,0.6,1.8c0.1,0.6,0.2,1.3,0.2,2S1530.1,485.2,1529.9,485.8z"/>
		<path class="st2" d="M1546.2,477c-0.5-0.4-1-0.6-1.7-0.6c-0.9,0-1.7,0.3-2.3,0.8c-0.7,0.5-1.2,1.2-1.6,2l0.3-2.1l-0.3-0.3h-0.9
			l-4.1,1.7l-0.2,0.3v0.7l0.3,0.3h0.3c0.3,0,0.6,0.1,0.8,0.4c0.2,0.2,0.4,0.5,0.4,0.8v7.2c0,0.3-0.1,0.6-0.4,0.8
			c-0.2,0.2-0.5,0.4-0.8,0.4h-0.4l-0.2,0.2v1.3l0.2,0.2h6.8l0.2-0.2v-1.3l-0.2-0.2h-0.4c-0.3,0-0.6-0.1-0.8-0.4
			c-0.2-0.2-0.4-0.5-0.4-0.8v-5.3c0-1,0.2-1.8,0.5-2.6c0.4-0.7,0.8-1.3,1.3-1.6c0,0.6,0.2,1.1,0.6,1.6c0.4,0.4,0.9,0.7,1.5,0.7
			s1.1-0.2,1.5-0.6s0.6-0.9,0.6-1.6C1546.9,477.9,1546.7,477.4,1546.2,477z"/>
		<path class="st2" d="M1552.3,470.7c-0.5-0.5-1-0.7-1.7-0.7c-0.6,0-1.2,0.2-1.7,0.7s-0.7,1.1-0.7,1.7s0.2,1.2,0.7,1.7
			s1,0.7,1.7,0.7s1.2-0.2,1.7-0.7s0.7-1,0.7-1.7C1553.1,471.8,1552.8,471.2,1552.3,470.7z M1554.2,489.4l-0.2-0.2h-0.4
			c-0.3,0-0.6-0.1-0.8-0.4c-0.2-0.2-0.4-0.5-0.4-0.8v-8.4l0.3-2.6l-0.3-0.3h-0.8l-4.7,1.8v0.9l0.3,0.3h0.3c0.3,0,0.6,0.1,0.8,0.4
			c0.2,0.2,0.4,0.5,0.4,0.8v7.2c0,0.3-0.1,0.6-0.4,0.8c-0.2,0.2-0.5,0.4-0.8,0.4h-0.4l-0.2,0.2v1.3l0.2,0.2h6.8l0.2-0.2l0,0
			L1554.2,489.4L1554.2,489.4z"/>
		<path class="st2" d="M1570.8,489.2h-0.3c-0.3,0-0.6-0.1-0.8-0.4c-0.2-0.2-0.4-0.5-0.4-0.8v-6.8c0-1.6-0.5-2.8-1.4-3.6
			c-0.9-0.8-2.1-1.3-3.7-1.3c-1.1,0-2,0.2-2.9,0.7c-0.8,0.5-1.5,1.1-2.1,1.9l0.3-1.9l-0.3-0.3h-0.9l-4.1,1.7l-0.2,0.3v0.7l0.3,0.3
			h0.3c0.3,0,0.5,0.1,0.8,0.4c0.2,0.2,0.4,0.5,0.4,0.8v7.2c0,0.3-0.1,0.6-0.4,0.8c-0.2,0.2-0.5,0.4-0.8,0.4h-0.4l-0.2,0.2l0,0v1.3
			l0,0l0.2,0.2h6.8l0.2-0.2v-1.3l-0.2-0.2h-0.4c-0.3,0-0.5-0.1-0.8-0.4c-0.2-0.2-0.4-0.5-0.4-0.8v-5.7c0-1.1,0.3-2,0.9-2.7
			s1.4-1,2.3-1c0.8,0,1.4,0.2,2,0.7c0.5,0.5,0.7,1.2,0.7,2.1v6.7c0,0.3-0.1,0.6-0.4,0.8c-0.2,0.2-0.5,0.4-0.8,0.4h-0.4l-0.2,0.2v1.3
			l0.2,0.2h6.8l0.2-0.2v-1.3L1570.8,489.2z"/>
		<path class="st2" d="M1585.8,485.7l-0.3-0.1l-0.3,0.1c-1.3,1.9-3.1,2.9-5.4,2.9c-1.3,0-2.4-0.3-3.2-1c-0.8-0.7-1.4-1.6-1.5-2.7
			l10.5-0.9l0.4-0.2c0-1-0.1-1.9-0.4-2.8s-0.7-1.7-1.3-2.3c-0.6-0.7-1.3-1.2-2.2-1.7c-0.9-0.4-2-0.6-3.1-0.6c-1.4,0-2.6,0.3-3.8,1
			c-1.2,0.6-2.1,1.5-2.8,2.7c-0.7,1.1-1,2.4-1,3.7c0,1.4,0.3,2.7,1,3.8c0.6,1.2,1.6,2.1,2.7,2.7c1.2,0.7,2.5,1,4,1
			c1.7,0,3.2-0.5,4.4-1.4c1.2-0.9,2.1-2.2,2.6-3.9L1585.8,485.7z M1576.2,479.4c0.7-0.9,1.6-1.3,2.8-1.3c1,0,1.7,0.3,2.3,0.9
			c0.6,0.6,0.9,1.4,0.9,2.5c0,0.3-0.1,0.6-0.3,0.8c-0.2,0.2-0.5,0.4-1,0.4l-5.8,0.5l-0.1-0.2
			C1575.1,481.5,1575.5,480.3,1576.2,479.4z"/>
		<path class="st2" d="M1463.3,515l-0.3-0.1l-0.3,0.1c-1.3,1.9-3.1,2.9-5.4,2.9c-1.3,0-2.4-0.3-3.2-1c-0.8-0.7-1.4-1.6-1.5-2.7
			l10.5-0.9l0.4-0.2c0-1-0.1-1.9-0.4-2.8s-0.7-1.6-1.3-2.3c-0.6-0.7-1.3-1.2-2.2-1.7c-0.9-0.4-2-0.6-3.1-0.6c-1.4,0-2.6,0.3-3.8,1
			c-1.2,0.6-2.1,1.5-2.8,2.7c-0.7,1.1-1,2.4-1,3.7c0,1.4,0.3,2.7,1,3.8c0.7,1.2,1.6,2.1,2.8,2.8c1.2,0.7,2.5,1,4,1
			c1.7,0,3.2-0.5,4.4-1.4c1.2-0.9,2.1-2.2,2.6-3.9L1463.3,515z M1453.7,508.7c0.7-0.9,1.6-1.3,2.8-1.3c1,0,1.7,0.3,2.3,0.9
			c0.6,0.6,0.9,1.4,0.9,2.5c0,0.3-0.1,0.6-0.3,0.8c-0.2,0.2-0.5,0.4-1,0.4l-5.8,0.5l-0.1-0.2C1452.6,510.8,1453,509.6,1453.7,508.7z
			"/>
		<path class="st2" d="M1478.6,518.5h-0.8c-0.2,0-0.4,0-0.5-0.1s-0.3-0.3-0.5-0.5l-4.3-5.6l3-3.7c0.2-0.3,0.5-0.5,0.7-0.6
			s0.5-0.2,0.8-0.2h0.5l0.2-0.2v-1.3l-0.2-0.2h-5l-0.2,0.2v1.3l0.2,0.2h0.4c0.2,0,0.4,0.1,0.5,0.2s0.2,0.3,0.2,0.5s-0.1,0.4-0.2,0.6
			l-1.7,2.2l-1.6-2.2c-0.1-0.2-0.2-0.4-0.2-0.6s0.1-0.3,0.2-0.5c0.1-0.1,0.3-0.2,0.5-0.2h0.3l0.2-0.2v-1.3l-0.2-0.2h-6.6l-0.2,0.2
			v1.3l0.2,0.2h0.6c0.1,0,0.3,0,0.4,0.1s0.2,0.2,0.3,0.2c0.1,0.1,0.2,0.2,0.4,0.4l3.8,5l-3.5,4.3c-0.2,0.2-0.3,0.4-0.5,0.5
			s-0.5,0.2-0.8,0.2h-1.1l-0.2,0.2v1.2l0.2,0.2h5.9l0.2-0.2v-1.2l-0.2-0.2h-0.6c-0.5,0-0.7-0.2-0.7-0.6c0-0.2,0.1-0.4,0.2-0.6l2-2.5
			l1.9,2.5c0.1,0.1,0.2,0.4,0.2,0.6c0,0.2-0.1,0.3-0.2,0.5c-0.1,0.1-0.3,0.2-0.5,0.2h-0.6l-0.2,0.2v1.2l0.2,0.2h7.2l0.2-0.2v-1.2
			L1478.6,518.5z"/>
		<path class="st2" d="M1493.8,507.6c-1.3-1.3-3-2-5-2c-1,0-1.9,0.2-2.8,0.7c-0.8,0.5-1.5,1.1-2,1.9l0.3-1.9l-0.3-0.3h-0.9l-4.1,1.7
			l-0.2,0.3v0.7l0.3,0.3h0.3c0.3,0,0.6,0.1,0.8,0.4c0.2,0.2,0.4,0.5,0.4,0.8v13.7c0,0.3-0.1,0.6-0.4,0.8c-0.2,0.2-0.5,0.4-0.8,0.4
			h-0.4l-0.2,0.2v1.3l0.2,0.2h6.8l0.2-0.2v-1.3l-0.2-0.2h-0.4c-0.3,0-0.6-0.1-0.8-0.4c-0.2-0.2-0.4-0.5-0.4-0.8v-5.1
			c0.5,0.5,1.2,1,2,1.3c0.8,0.4,1.6,0.5,2.5,0.5c1,0,1.9-0.2,2.7-0.5c0.8-0.4,1.6-0.8,2.2-1.4c0.6-0.6,1.1-1.4,1.5-2.4
			s0.6-2,0.6-3.2C1495.7,510.8,1495.1,508.9,1493.8,507.6z M1491.7,515.3c-0.1,0.7-0.4,1.3-0.7,1.8c-0.3,0.6-0.7,1-1.2,1.3
			s-1.2,0.5-1.9,0.5c-0.7,0-1.3-0.2-1.8-0.5s-0.9-0.8-1.2-1.3c-0.3-0.5-0.5-1.2-0.7-1.8c-0.1-0.7-0.2-1.4-0.2-2.2s0.1-1.5,0.2-2.2
			s0.4-1.3,0.7-1.8c0.3-0.6,0.7-1,1.2-1.3s1.1-0.5,1.8-0.5c0.7,0,1.3,0.1,1.9,0.5c0.5,0.3,0.9,0.7,1.2,1.3c0.3,0.6,0.5,1.2,0.7,1.8
			c0.1,0.7,0.2,1.4,0.2,2.2C1491.9,513.9,1491.9,514.6,1491.7,515.3z"/>
		<path class="st2" d="M1510.8,515l-0.3-0.1l-0.3,0.1c-1.3,1.9-3.1,2.9-5.4,2.9c-1.3,0-2.4-0.3-3.2-1c-0.9-0.7-1.4-1.6-1.5-2.7
			l10.5-0.9l0.4-0.2c0-1-0.1-1.9-0.4-2.8s-0.7-1.6-1.3-2.3c-0.6-0.7-1.3-1.2-2.2-1.7c-0.9-0.4-1.9-0.6-3.1-0.6c-1.4,0-2.6,0.3-3.8,1
			c-1.2,0.6-2.1,1.5-2.8,2.7c-0.7,1.1-1,2.4-1,3.7c0,1.4,0.3,2.7,1,3.8c0.6,1.2,1.6,2.1,2.7,2.8c1.2,0.7,2.5,1,4,1
			c1.7,0,3.2-0.5,4.4-1.4c1.2-0.9,2.1-2.2,2.6-3.9L1510.8,515z M1501.1,508.7c0.7-0.9,1.7-1.3,2.8-1.3c0.9,0,1.7,0.3,2.3,0.9
			c0.6,0.6,0.9,1.4,0.9,2.5c0,0.3-0.1,0.6-0.3,0.8c-0.2,0.2-0.5,0.4-1,0.4l-5.8,0.5l-0.1-0.2C1500,510.8,1500.4,509.6,1501.1,508.7z
			"/>
		<path class="st2" d="M1521.8,506.3c-0.5-0.4-1-0.6-1.7-0.6c-0.9,0-1.7,0.3-2.3,0.8c-0.7,0.5-1.2,1.2-1.6,2l0.3-2.1l-0.3-0.3h-0.9
			l-4.1,1.7l-0.2,0.3v0.6l0.3,0.3h0.3c0.3,0,0.6,0.1,0.8,0.4c0.2,0.2,0.4,0.5,0.4,0.8v7.2c0,0.3-0.1,0.5-0.4,0.8
			c-0.2,0.2-0.5,0.4-0.8,0.4h-0.4l-0.2,0.2v1.2l0.2,0.2h6.8l0.2-0.2v-1.2l-0.2-0.2h-0.3c-0.3,0-0.6-0.1-0.8-0.4
			c-0.2-0.2-0.4-0.5-0.4-0.8V512c0-1,0.2-1.8,0.5-2.6c0.4-0.8,0.8-1.3,1.3-1.6c0,0.6,0.2,1.1,0.6,1.6c0.4,0.4,0.9,0.6,1.5,0.6
			s1.1-0.2,1.5-0.6s0.6-1,0.6-1.6C1522.5,507.2,1522.3,506.7,1521.8,506.3z"/>
		<path class="st2" d="M1527.9,500c-0.5-0.5-1-0.7-1.7-0.7s-1.2,0.2-1.7,0.7s-0.7,1.1-0.7,1.7s0.2,1.2,0.7,1.7s1,0.7,1.7,0.7
			s1.2-0.2,1.7-0.7s0.7-1,0.7-1.7C1528.6,501.1,1528.4,500.5,1527.9,500z M1529.6,518.5h-0.4c-0.3,0-0.5-0.1-0.8-0.4
			c-0.2-0.2-0.4-0.5-0.4-0.8v-8.4l0.3-2.6l-0.3-0.3h-0.8l-4.7,1.8v0.9l0.3,0.3h0.3c0.3,0,0.5,0.1,0.8,0.4c0.2,0.2,0.4,0.5,0.4,0.8
			v7.2c0,0.3-0.1,0.5-0.4,0.8c-0.2,0.2-0.5,0.4-0.8,0.4h-0.4l-0.2,0.2v1.2l0.2,0.2h6.8l0.2-0.2v-1.2L1529.6,518.5z"/>
		<path class="st2" d="M1544.6,515l-0.3-0.1l-0.3,0.1c-1.3,1.9-3.1,2.9-5.4,2.9c-1.3,0-2.4-0.3-3.2-1c-0.8-0.7-1.4-1.6-1.5-2.7
			l10.5-0.9l0.4-0.2c0-1-0.1-1.9-0.4-2.8s-0.7-1.6-1.3-2.3c-0.6-0.7-1.3-1.2-2.2-1.7c-0.9-0.4-1.9-0.6-3.1-0.6c-1.4,0-2.6,0.3-3.8,1
			c-1.2,0.6-2.1,1.5-2.8,2.7c-0.7,1.1-1,2.4-1,3.7c0,1.4,0.3,2.7,1,3.8c0.6,1.2,1.6,2.1,2.7,2.8c1.2,0.7,2.5,1,4,1
			c1.7,0,3.2-0.5,4.4-1.4c1.2-0.9,2.1-2.2,2.6-3.9L1544.6,515z M1534.9,508.7c0.7-0.9,1.6-1.3,2.8-1.3c1,0,1.7,0.3,2.3,0.9
			c0.6,0.6,0.8,1.4,0.8,2.5c0,0.3-0.1,0.6-0.3,0.8c-0.2,0.2-0.5,0.4-1,0.4l-5.8,0.5l-0.1-0.2
			C1533.8,510.8,1534.2,509.6,1534.9,508.7z"/>
		<path class="st2" d="M1561.5,518.5h-0.4c-0.3,0-0.6-0.1-0.8-0.4c-0.2-0.2-0.4-0.5-0.4-0.8v-6.8c0-1.6-0.5-2.8-1.4-3.6
			c-0.9-0.8-2.1-1.3-3.7-1.3c-1.1,0-2,0.2-2.9,0.7c-0.8,0.5-1.5,1.1-2,1.9l0.3-1.9l-0.3-0.3h-0.9l-4.1,1.7l-0.2,0.3v0.6l0.3,0.3h0.3
			c0.3,0,0.6,0.1,0.8,0.4c0.2,0.2,0.4,0.5,0.4,0.8v7.2c0,0.3-0.1,0.5-0.4,0.8c-0.2,0.2-0.5,0.4-0.8,0.4h-0.4l-0.2,0.2v1.2l0.2,0.2
			h6.8l0.2-0.2v-1.2l-0.2-0.2h-0.4c-0.3,0-0.5-0.1-0.8-0.4c-0.2-0.2-0.4-0.5-0.4-0.8v-5.7c0-1.2,0.3-2.1,0.9-2.8
			c0.6-0.7,1.4-1,2.3-1c0.8,0,1.5,0.2,2,0.7s0.7,1.2,0.7,2.1v6.7c0,0.3-0.1,0.5-0.4,0.8c-0.2,0.2-0.5,0.4-0.8,0.4h-0.4l-0.2,0.2v1.2
			l0.2,0.2h6.8l0.2-0.2v-1.2L1561.5,518.5z"/>
		<path class="st2" d="M1575,515.5l-0.3-0.1l-0.3,0.1c-0.9,1.7-2.3,2.5-4.2,2.5c-0.9,0-1.8-0.2-2.5-0.7s-1.2-1.1-1.6-1.9
			c-0.4-0.8-0.5-1.6-0.5-2.6c0-0.7,0.1-1.4,0.2-2s0.4-1.2,0.7-1.8s0.7-1,1.2-1.3s1.1-0.5,1.8-0.5c0.9,0,1.6,0.2,2.2,0.7
			s0.8,1.2,0.8,2v0.5l0.2,0.2h1.1l0.2-0.2l-0.1-3.6l-0.2-0.3c-1.2-0.7-2.6-1.1-4.3-1.1c-1,0-1.9,0.2-2.9,0.5
			c-0.9,0.3-1.7,0.8-2.5,1.4c-0.7,0.6-1.3,1.4-1.7,2.4s-0.6,2-0.6,3.1s0.2,2.2,0.6,3.1c0.4,1,0.9,1.7,1.6,2.4
			c0.7,0.6,1.4,1.1,2.3,1.4c0.8,0.4,1.7,0.5,2.7,0.5c0.9,0,1.7-0.1,2.4-0.4c0.7-0.2,1.3-0.6,1.8-1.1s0.8-1,1.1-1.5
			c0.3-0.5,0.5-1.1,0.7-1.8L1575,515.5z"/>
		<path class="st2" d="M1589.9,515l-0.3-0.1l-0.3,0.1c-1.3,1.9-3.1,2.9-5.4,2.9c-1.3,0-2.4-0.3-3.2-1c-0.9-0.7-1.4-1.6-1.5-2.7
			l10.5-0.9l0.4-0.2c0-1-0.1-1.9-0.4-2.8s-0.7-1.6-1.3-2.3c-0.6-0.7-1.3-1.2-2.2-1.7c-0.9-0.4-1.9-0.6-3.1-0.6c-1.4,0-2.6,0.3-3.8,1
			c-1.2,0.6-2.1,1.5-2.8,2.7c-0.7,1.1-1,2.4-1,3.7c0,1.4,0.3,2.7,1,3.8c0.6,1.2,1.6,2.1,2.7,2.8c1.2,0.7,2.5,1,4,1
			c1.7,0,3.2-0.5,4.4-1.4c1.2-0.9,2.1-2.2,2.6-3.9L1589.9,515z M1580.3,508.7c0.7-0.9,1.7-1.3,2.8-1.3c0.9,0,1.7,0.3,2.3,0.9
			c0.6,0.6,0.9,1.4,0.9,2.5c0,0.3-0.1,0.6-0.3,0.8c-0.2,0.2-0.5,0.4-1,0.4l-5.8,0.5l-0.1-0.2
			C1579.2,510.8,1579.5,509.6,1580.3,508.7z"/>
	</g>
</g>
<g>
	<g>
		<path class="st2" d="M1283.3,771.4c-2,0-3.1-1.1-3.1-2.9v-50.8h-15v8.1h-1.1c-2.9-4.1-9-9.8-20.1-9.8c-17.7,0-30.9,14.7-30.9,34.8
			s13.4,34.8,31.3,34.8c11.5,0,17.4-6,19.9-10h1.1c0.5,4.3,3.5,8.4,9.5,8.4h11.3v-12.7h-2.9V771.4z M1247.1,771.3
			c-10.5,0-18.8-7.7-18.8-20.3c0-12.3,8-20.7,18.6-20.7c10.1,0,18.6,7.5,18.6,20.7C1265.6,762.3,1258.3,771.3,1247.1,771.3z"/>
		<path class="st2" d="M1312.4,736.3c0-3.9,3.8-6.7,10.1-6.7c6.3,0,10.6,2.7,11.9,8.5l13.3-3.7c-2.4-11.9-12.4-18.4-25.2-18.4
			c-15.1,0-24.5,8.7-24.5,20c0,27,36,15.7,36,29.1c0,4.4-3.8,7.1-11,7.1c-7,0-11.8-3.3-13.2-10.3l-14.2,3.2
			c1.8,13.5,12.5,20.5,27,20.5c16.3,0,26.7-8.9,26.7-21.9C1349.4,737.1,1312.4,748.7,1312.4,736.3z"/>
		<path class="st2" d="M1425.3,750.5c0-19.8-12.3-34.5-32.6-34.5c-17.9,0-33.2,14.1-33.2,35c0,20.3,13.6,34.7,33.8,34.7
			c13.8,0,26-6.8,30.3-20.6l-13.7-3.3c-2.4,7.4-9.4,11.2-16.7,11.2c-10.9,0-18.1-7.1-18.2-18.3h50.3L1425.3,750.5L1425.3,750.5z
			 M1375.2,743.8c0.9-8,8.1-14.7,17.6-14.7c9.1,0,16.6,5.7,17.4,14.7H1375.2z"/>
	</g>
	<rect x="1149.9" y="776.2" class="st2" width="0.1" height="7.9"/>
	<rect x="1149.9" y="776.2" class="st2" width="0.1" height="7.9"/>
	<g>
		<path class="st2" d="M1421.8,696v-14.3h-287v102.4h15.1v-7.9h1.1c2.7,3.4,8.2,9.5,19.6,9.5c17.9,0,31.7-14.7,31.7-34.8
			c0-19.8-12.9-34.8-30.7-34.8c-11.8,0-17.6,6.3-20.5,10.1h-1.1V696H1421.8z M1168.5,730.1c10.5,0,18.6,8.6,18.6,20.9
			c0,12.5-8.4,20.8-18.9,20.8c-10,0-16.9-7.5-18.2-17.1c-0.2-1.2-0.3-2.4-0.3-3.6c0-1.4,0.1-2.7,0.3-3.9
			C1151.6,736.3,1159.3,730.1,1168.5,730.1z"/>
	</g>
	<rect x="1149.9" y="776.2" class="st2" width="0.1" height="7.9"/>
	<g>
		<path class="st2" d="M1465,685.7c-0.4-1-0.9-1.7-1.5-2.4c-0.6-0.6-1.4-1.1-2.2-1.4c-0.8-0.4-1.8-0.5-2.7-0.5
			c-1.8,0-3.3,0.6-4.5,1.8v-4.9l0.3-2.6l-0.3-0.3h-0.8l-4.7,1.8v0.9l0.3,0.3h0.3c0.3,0,0.6,0.1,0.8,0.4c0.2,0.2,0.4,0.5,0.4,0.8V693
			c0,0.3-0.1,0.6-0.4,0.8c-0.2,0.2-0.5,0.4-0.8,0.4h-0.4l-0.2,0.2v1.3l0.2,0.2h5l0.2-0.2v-1.3c1.1,1.3,2.7,1.9,4.6,1.9
			c2,0,3.7-0.7,5-2.1c1.3-1.4,2-3.2,2-5.4C1465.5,687.7,1465.3,686.6,1465,685.7z M1461.5,691c-0.1,0.7-0.4,1.3-0.7,1.8
			c-0.3,0.6-0.7,1-1.2,1.3s-1.1,0.5-1.8,0.5s-1.3-0.1-1.8-0.5c-0.5-0.3-0.9-0.7-1.2-1.3c-0.3-0.6-0.5-1.2-0.7-1.8
			c-0.1-0.7-0.2-1.4-0.2-2.2s0.1-1.5,0.2-2.2s0.4-1.3,0.7-1.8c0.3-0.6,0.7-1,1.2-1.3s1.1-0.5,1.8-0.5s1.3,0.2,1.8,0.5
			s0.9,0.7,1.2,1.3c0.3,0.6,0.5,1.2,0.7,1.8c0.2,0.7,0.2,1.4,0.2,2.1C1461.8,689.6,1461.7,690.3,1461.5,691z"/>
		<path class="st2" d="M1481.6,685.9c-0.4-0.9-1-1.7-1.7-2.4s-1.5-1.2-2.5-1.6c-1-0.4-2-0.6-3-0.6s-2,0.2-3,0.6s-1.8,0.9-2.5,1.6
			c-0.7,0.7-1.2,1.5-1.7,2.4c-0.4,0.9-0.6,1.9-0.6,3c0,1.4,0.4,2.6,1.1,3.8c0.7,1.1,1.6,2,2.8,2.7c1.2,0.7,2.5,1,3.9,1
			s2.7-0.3,3.9-1c1.2-0.6,2.2-1.6,2.8-2.7c0.7-1.2,1.1-2.4,1.1-3.8C1482.2,687.8,1482,686.8,1481.6,685.9z M1477.4,693
			c-0.7,1.1-1.7,1.6-3,1.6s-2.3-0.5-2.9-1.6c-0.7-1.1-1-2.4-1-4.2c0-1.7,0.3-3.1,1-4.2c0.7-1.1,1.7-1.6,2.9-1.6c1.3,0,2.3,0.5,3,1.6
			s1,2.4,1,4.2S1478.1,692,1477.4,693z"/>
		<path class="st2" d="M1493.9,682c-0.5-0.4-1-0.6-1.7-0.6c-0.9,0-1.7,0.3-2.3,0.8c-0.7,0.5-1.2,1.2-1.6,2l0.3-2.1l-0.3-0.3h-0.9
			l-4.1,1.7l-0.2,0.3v0.7l0.3,0.3h0.3c0.3,0,0.6,0.1,0.8,0.4c0.2,0.2,0.4,0.5,0.4,0.8v7.2c0,0.3-0.1,0.6-0.4,0.8
			c-0.2,0.2-0.5,0.4-0.8,0.4h-0.4l-0.2,0.2v1.3l0.2,0.2h6.8l0.2-0.2v-1.3l-0.2-0.2h-0.4c-0.3,0-0.6-0.1-0.8-0.4
			c-0.2-0.2-0.4-0.5-0.4-0.8v-5.3c0-1,0.2-1.8,0.5-2.6c0.4-0.8,0.8-1.3,1.3-1.6c0,0.6,0.2,1.2,0.6,1.6c0.4,0.4,0.9,0.6,1.5,0.6
			s1.1-0.2,1.5-0.6c0.4-0.4,0.6-0.9,0.6-1.6C1494.6,682.9,1494.4,682.4,1493.9,682z"/>
		<path class="st2" d="M1512.5,694.2h-0.3c-0.3,0-0.6-0.1-0.8-0.4c-0.2-0.2-0.4-0.5-0.4-0.8v-14.9l0.3-2.6l-0.3-0.3h-0.8l-4.7,1.8
			v0.9l0.3,0.3h0.3c0.3,0,0.6,0.1,0.8,0.4c0.2,0.2,0.4,0.5,0.4,0.8v3.8c-1.2-1.2-2.7-1.8-4.5-1.8c-1,0-1.9,0.2-2.7,0.5
			c-0.8,0.3-1.6,0.8-2.2,1.4c-0.6,0.6-1.1,1.4-1.5,2.4s-0.5,2-0.5,3.2c0,2.2,0.6,4,2,5.4c1.3,1.4,3,2.1,5,2.1c1.9,0,3.5-0.6,4.6-1.9
			v1.3l0.2,0.2h5l0.2-0.2v-1.3L1512.5,694.2z M1507.2,691c-0.2,0.7-0.4,1.3-0.7,1.8c-0.3,0.5-0.7,1-1.2,1.3s-1.1,0.5-1.8,0.5
			c-0.7,0-1.3-0.1-1.8-0.5c-0.5-0.3-0.9-0.7-1.2-1.3c-0.3-0.6-0.5-1.2-0.7-1.8c-0.1-0.7-0.2-1.4-0.2-2.2s0.1-1.5,0.2-2.2
			s0.4-1.3,0.7-1.8c0.3-0.6,0.7-1,1.2-1.3s1.1-0.5,1.8-0.5c0.7,0,1.3,0.2,1.8,0.5s1,0.8,1.2,1.3c0.3,0.6,0.5,1.2,0.7,1.8
			c0.1,0.7,0.2,1.4,0.2,2.2C1507.4,689.6,1507.3,690.3,1507.2,691z"/>
		<path class="st2" d="M1528.1,690.7l-0.3-0.1l-0.3,0.1c-1.3,1.9-3.1,2.9-5.4,2.9c-1.3,0-2.4-0.4-3.2-1c-0.8-0.7-1.4-1.6-1.5-2.8
			l10.5-0.9l0.4-0.2c0-1-0.1-1.9-0.4-2.8c-0.3-0.9-0.7-1.7-1.3-2.3c-0.6-0.7-1.3-1.3-2.2-1.7c-0.9-0.4-1.9-0.6-3.1-0.6
			c-1.4,0-2.6,0.3-3.8,1c-1.2,0.6-2.1,1.5-2.8,2.7c-0.7,1.1-1,2.4-1,3.7c0,1.4,0.3,2.7,1,3.8c0.6,1.2,1.6,2.1,2.7,2.7
			c1.2,0.7,2.5,1,4,1c1.7,0,3.2-0.5,4.4-1.4c1.2-0.9,2.1-2.2,2.6-3.9L1528.1,690.7z M1518.4,684.4c0.7-0.9,1.6-1.4,2.8-1.4
			c1,0,1.7,0.3,2.3,1c0.6,0.6,0.8,1.4,0.8,2.5c0,0.3-0.1,0.6-0.3,0.8c-0.2,0.2-0.5,0.4-1,0.4l-5.8,0.5l-0.1-0.2
			C1517.4,686.5,1517.7,685.3,1518.4,684.4z"/>
		<path class="st2" d="M1545.9,693.3h-0.2c-0.3,0-0.6-0.1-0.7-0.3c-0.2-0.2-0.3-0.5-0.3-0.8v-7.5l0.3-2.6l-0.3-0.3h-1l-1.7,1.8h-0.1
			c-0.5-0.6-1.2-1.1-2-1.6c-0.8-0.4-1.8-0.7-3-0.7c-1.4,0-2.6,0.3-3.8,1c-1.1,0.7-2,1.6-2.6,2.7c-0.6,1.1-1,2.4-1,3.8
			c0,0.9,0.1,1.8,0.4,2.6s0.6,1.5,1.1,2.1c0.4,0.6,1,1.1,1.5,1.5c0.6,0.4,1.2,0.8,1.9,1c0.7,0.2,1.3,0.3,2,0.3
			c1.1,0,1.9-0.1,2.6-0.4c0.7-0.3,1.3-0.7,1.9-1.3v1.3l0.3,0.3h0.9l4.3-1.8v-0.9L1545.9,693.3z M1540.6,690.8
			c-0.1,0.6-0.4,1.3-0.6,1.8c-0.3,0.6-0.7,1-1.2,1.4s-1.1,0.5-1.8,0.5c-0.7,0-1.3-0.2-1.8-0.5c-0.5-0.4-0.9-0.8-1.2-1.4
			c-0.3-0.6-0.5-1.2-0.6-1.8s-0.2-1.3-0.2-2s0.1-1.4,0.2-2s0.4-1.3,0.6-1.8c0.3-0.6,0.7-1,1.2-1.4s1.1-0.5,1.8-0.5
			c0.7,0,1.3,0.2,1.8,0.5c0.5,0.4,0.9,0.8,1.2,1.4c0.3,0.6,0.5,1.2,0.6,1.8s0.2,1.3,0.2,2C1540.8,689.5,1540.7,690.2,1540.6,690.8z"
			/>
		<path class="st2" d="M1563.3,693.3h-0.3c-0.3,0-0.5-0.1-0.8-0.3c-0.2-0.2-0.4-0.5-0.4-0.7v-7.5l0.3-2.6l-0.3-0.3h-0.8l-4.7,1.8
			v0.9l0.3,0.3h0.3c0.3,0,0.6,0.1,0.8,0.4c0.2,0.2,0.4,0.5,0.4,0.8v4.5c0,1.1-0.3,2-0.9,2.7s-1.4,1-2.3,1c-0.8,0-1.5-0.2-2-0.7
			s-0.7-1.1-0.7-2V685l0.3-2.6l-0.3-0.3h-0.8l-4.7,1.8v0.9l0.3,0.3h0.3c0.3,0,0.6,0.1,0.8,0.4c0.2,0.2,0.4,0.5,0.4,0.8v5.6
			c0,1.6,0.5,2.8,1.4,3.7c0.9,0.8,2.1,1.3,3.7,1.3c0.9,0,1.8-0.2,2.6-0.6c0.8-0.4,1.5-0.9,2-1.6v1.8l0.3,0.3h0.9l4.4-1.8v-0.9
			L1563.3,693.3z"/>
		<path class="st2" d="M1579.2,694.2h-0.8c-0.2,0-0.4-0.1-0.5-0.1c-0.1-0.1-0.3-0.3-0.4-0.5l-4.3-5.5l3-3.7c0.3-0.3,0.5-0.5,0.7-0.6
			s0.5-0.2,0.8-0.2h0.5l0.2-0.2V682l-0.2-0.2h-5l-0.2,0.2v1.3l0.2,0.2h0.4c0.2,0,0.4,0.1,0.5,0.2c0.1,0.1,0.2,0.3,0.2,0.5
			s-0.1,0.4-0.2,0.6l-1.7,2.2l-1.6-2.2c-0.1-0.2-0.2-0.4-0.2-0.6c0-0.2,0.1-0.3,0.2-0.5c0.1-0.1,0.3-0.2,0.5-0.2h0.3l0.2-0.2V682
			l-0.2-0.2h-6.6l-0.2,0.2v1.3l0.2,0.2h0.6c0.1,0,0.3,0,0.4,0.1s0.2,0.2,0.3,0.3c0.1,0.1,0.2,0.2,0.3,0.4l3.9,5l-3.5,4.3
			c-0.2,0.2-0.3,0.4-0.5,0.5s-0.5,0.2-0.8,0.2h-1.1l-0.2,0.2v1.3l0.2,0.2h5.8l0.2-0.2v-1.3l-0.2-0.2h-0.6c-0.5,0-0.7-0.2-0.7-0.6
			c0-0.2,0.1-0.4,0.2-0.6l2-2.5l1.9,2.5c0.1,0.1,0.2,0.4,0.2,0.6c0,0.2,0,0.4-0.2,0.5c-0.1,0.1-0.3,0.2-0.5,0.2h-0.6l-0.2,0.2v1.3
			l0.2,0.2h7.2l0.2-0.2v-1.3L1579.2,694.2z"/>
		<path class="st2" d="M1465.4,722.6h-0.2c-0.3,0-0.6-0.1-0.7-0.3c-0.2-0.2-0.3-0.5-0.3-0.8V714l0.3-2.6l-0.3-0.3h-1l-1.7,1.9h-0.1
			c-0.5-0.6-1.2-1.1-2-1.6c-0.8-0.4-1.8-0.7-3-0.7c-1.4,0-2.6,0.4-3.8,1c-1.1,0.7-2,1.6-2.6,2.7c-0.6,1.2-1,2.4-1,3.8
			c0,0.9,0.1,1.8,0.4,2.6c0.2,0.8,0.6,1.5,1.1,2.1s1,1.1,1.6,1.5s1.2,0.8,1.9,1c0.7,0.2,1.3,0.3,2,0.3c1.1,0,1.9-0.1,2.6-0.4
			c0.7-0.3,1.3-0.7,1.9-1.3v1.3l0.3,0.3h0.9l4.2-1.7h0.1v-0.8L1465.4,722.6z M1460.1,720.1c-0.1,0.6-0.4,1.3-0.6,1.8
			c-0.3,0.6-0.7,1-1.2,1.4s-1.1,0.5-1.8,0.5c-0.7,0-1.3-0.2-1.8-0.5c-0.5-0.4-0.9-0.8-1.2-1.4c-0.3-0.6-0.5-1.2-0.6-1.8
			s-0.2-1.3-0.2-2s0.1-1.4,0.2-2s0.4-1.3,0.6-1.8c0.3-0.6,0.7-1,1.2-1.4s1.1-0.5,1.8-0.5c0.7,0,1.3,0.2,1.8,0.5
			c0.5,0.4,0.9,0.8,1.2,1.4c0.3,0.6,0.5,1.2,0.6,1.8s0.2,1.3,0.2,2C1460.3,718.8,1460.3,719.5,1460.1,720.1z"/>
		<path class="st2" d="M1477.1,712.6c0-0.2,0-0.4-0.1-0.5c-0.1-0.3-0.3-0.6-0.5-0.9c-0.5-0.4-1-0.6-1.7-0.6c-0.9,0-1.7,0.3-2.3,0.8
			c-0.7,0.5-1.2,1.2-1.6,2l0.3-2.1l-0.3-0.3h-0.9l-4.1,1.7l-0.2,0.3v0.7l0.3,0.3h0.3c0.3,0,0.6,0.1,0.8,0.4c0.2,0.2,0.4,0.5,0.4,0.8
			v7.2c0,0.3-0.1,0.6-0.4,0.8c-0.2,0.2-0.5,0.4-0.8,0.4h-0.4l-0.1,0.1l-0.1,0.1v1.3l0.2,0.2h6.8l0.2-0.2v-1.3l-0.2-0.2h-0.4
			c-0.3,0-0.6-0.1-0.8-0.4c-0.2-0.2-0.4-0.5-0.4-0.8V717c0-1,0.2-1.8,0.5-2.6c0.4-0.8,0.8-1.3,1.3-1.6c0,0.6,0.2,1.1,0.6,1.6
			c0.4,0.4,0.9,0.7,1.5,0.7s1.1-0.2,1.5-0.6c0.4-0.4,0.6-0.9,0.6-1.6C1477.1,712.8,1477.1,712.7,1477.1,712.6z"/>
		<path class="st2" d="M1488.3,721.6l-0.3-0.1l-0.3,0.1c-0.4,1.3-1.2,1.9-2.4,1.9c-0.7,0-1.2-0.2-1.6-0.7s-0.6-1.1-0.6-2v-8.1h3.6
			l0.2-0.2v-1.3l-0.2-0.2h-3.6l0.3-3.8l-0.3-0.3h-0.4l-5.7,4.9v0.6l0.1,0.1l0.1,0.1h1c0.3,0,0.5,0.1,0.8,0.3
			c0.2,0.2,0.4,0.5,0.4,0.8v7c0,0.8,0.1,1.6,0.4,2.2c0.2,0.6,0.6,1.1,1,1.5s0.9,0.6,1.5,0.8c0.5,0.2,1.1,0.3,1.8,0.3
			c0.7,0,1.2-0.1,1.7-0.2c0.5-0.2,0.9-0.4,1.2-0.6c0.3-0.2,0.6-0.5,0.8-0.9c0.2-0.4,0.4-0.7,0.5-1s0.2-0.7,0.3-1.1L1488.3,721.6z"/>
		<path class="st2" d="M1498.8,719.3c-0.2-0.5-0.5-0.8-0.9-1.2c-0.4-0.3-0.8-0.6-1.2-0.7c-0.4-0.2-0.9-0.4-1.6-0.6
			c-1-0.4-1.8-0.7-2.3-1.2c-0.5-0.4-0.7-1-0.7-1.6s0.2-1.1,0.6-1.4c0.4-0.4,0.9-0.5,1.6-0.5c0.8,0,1.4,0.3,1.8,0.8s0.6,1.2,0.6,2
			l0.3,0.3h0.9l0.3-0.3l-0.1-3.2l-0.2-0.3c-1.1-0.5-2.3-0.8-3.8-0.8s-2.8,0.4-3.7,1.2c-1,0.8-1.5,1.9-1.5,3.2c0,0.9,0.3,1.8,0.9,2.4
			c0.6,0.7,1.4,1.2,2.5,1.6c0.5,0.2,0.8,0.3,1.1,0.4c0.2,0.1,0.5,0.2,0.8,0.4c0.3,0.1,0.5,0.3,0.6,0.5s0.3,0.4,0.4,0.6
			c0.1,0.2,0.1,0.5,0.1,0.8s-0.1,0.7-0.2,1c-0.1,0.4-0.4,0.7-0.7,1c-0.4,0.3-0.8,0.4-1.3,0.4c-0.8,0-1.4-0.3-1.9-0.8
			c-0.4-0.6-0.6-1.3-0.6-2.3l-0.3-0.3h-0.8l-0.3,0.3l-0.8,3.1l0.1,0.3c1.3,0.8,3,1.3,4.9,1.3c1,0,2-0.2,2.8-0.5s1.5-0.8,2.1-1.6
			c0.6-0.7,0.8-1.6,0.8-2.6C1499,720.3,1498.9,719.7,1498.8,719.3z"/>
		<path class="st2" d="M1459.1,748.6c-0.2-0.5-0.5-0.8-0.9-1.2c-0.4-0.3-0.8-0.6-1.2-0.7c-0.4-0.2-0.9-0.4-1.6-0.6
			c-1-0.4-1.8-0.7-2.3-1.2c-0.5-0.4-0.7-1-0.7-1.6s0.2-1.1,0.6-1.4c0.4-0.4,0.9-0.5,1.6-0.5c0.8,0,1.4,0.3,1.8,0.8s0.6,1.2,0.6,2
			l0.3,0.3h0.9l0.3-0.3l-0.1-3.1l-0.2-0.3c-1.1-0.5-2.3-0.8-3.8-0.8s-2.8,0.4-3.7,1.2c-1,0.8-1.5,1.9-1.5,3.2c0,0.9,0.3,1.8,0.9,2.4
			c0.6,0.7,1.4,1.2,2.5,1.6c0.5,0.2,0.8,0.3,1.1,0.4c0.2,0.1,0.5,0.2,0.8,0.4c0.3,0.1,0.5,0.3,0.6,0.5s0.3,0.4,0.4,0.6
			c0.1,0.2,0.1,0.5,0.1,0.8s-0.1,0.7-0.2,1c-0.1,0.4-0.4,0.7-0.7,1c-0.4,0.3-0.8,0.4-1.3,0.4c-0.8,0-1.4-0.3-1.9-0.8
			c-0.4-0.6-0.6-1.3-0.6-2.3l-0.3-0.3h-0.8l-0.3,0.3l-0.8,3.1l0.1,0.3c1.3,0.8,3,1.3,4.9,1.3c1,0,2-0.2,2.8-0.5s1.5-0.8,2.1-1.6
			c0.6-0.7,0.8-1.6,0.8-2.6C1459.4,749.6,1459.3,749.1,1459.1,748.6z"/>
		<path class="st2" d="M1475.7,751.9h-0.3c-0.3,0-0.5-0.1-0.8-0.3c-0.2-0.2-0.4-0.5-0.4-0.7v-7.5l0.3-2.6l-0.3-0.3h-0.8l-4.7,1.8
			v0.9l0.3,0.3h0.3c0.3,0,0.6,0.1,0.8,0.4c0.2,0.2,0.4,0.5,0.4,0.8v4.5c0,1.1-0.3,2-0.9,2.7s-1.4,1-2.3,1c-0.8,0-1.5-0.2-2-0.7
			s-0.7-1.1-0.7-2v-6.6l0.3-2.6l-0.3-0.3h-0.8l-4.7,1.8v0.9l0.3,0.3h0.3c0.3,0,0.6,0.1,0.8,0.4c0.2,0.2,0.4,0.5,0.4,0.8v5.6
			c0,1.6,0.5,2.8,1.4,3.7c0.9,0.8,2.1,1.3,3.7,1.3c0.9,0,1.8-0.2,2.6-0.6s1.5-0.9,2-1.6v1.7l0.3,0.3h0.9l4.3-1.7h0.1v-0.9
			L1475.7,751.9z"/>
		<path class="st2" d="M1492.4,744.3c-0.4-1-0.9-1.7-1.5-2.4c-0.6-0.6-1.4-1.1-2.2-1.4c-0.8-0.3-1.8-0.5-2.7-0.5
			c-1.8,0-3.3,0.6-4.5,1.8v-4.9l0.3-2.6l-0.3-0.3h-0.9l-4.6,1.8v0.9l0.3,0.3h0.3c0.3,0,0.6,0.1,0.8,0.4c0.2,0.2,0.4,0.5,0.4,0.8
			v13.7c0,0.3-0.1,0.6-0.4,0.8c-0.2,0.2-0.5,0.4-0.8,0.4h-0.4l-0.1,0.1l-0.1,0.1v1.3l0.2,0.2h5.1l0.2-0.2V753
			c1.1,1.3,2.6,1.9,4.6,1.9s3.7-0.7,5-2.1c1.3-1.4,2-3.2,2-5.4C1492.9,746.3,1492.8,745.2,1492.4,744.3z M1488.9,749.6
			c-0.1,0.7-0.4,1.3-0.7,1.8c-0.3,0.6-0.7,1-1.2,1.3s-1.1,0.5-1.8,0.5c-0.7,0-1.3-0.2-1.8-0.5s-0.9-0.7-1.2-1.3
			c-0.3-0.5-0.5-1.2-0.7-1.8c-0.1-0.7-0.2-1.4-0.2-2.2s0.1-1.5,0.2-2.2s0.4-1.3,0.7-1.8c0.3-0.5,0.7-1,1.2-1.3s1.1-0.5,1.8-0.5
			c0.7,0,1.3,0.1,1.8,0.5c0.5,0.3,0.9,0.8,1.2,1.3c0.3,0.6,0.5,1.2,0.7,1.8c0.1,0.7,0.2,1.4,0.2,2.1
			C1489.2,748.2,1489.1,748.9,1488.9,749.6z"/>
		<path class="st2" d="M1518.2,752.8h-0.4c-0.3,0-0.5-0.1-0.8-0.4c-0.2-0.2-0.4-0.5-0.4-0.8v-7.2c0-1.4-0.4-2.5-1.2-3.3
			c-0.8-0.8-1.9-1.2-3.3-1.2c-2,0-3.6,0.8-4.7,2.4c-0.2-0.6-0.6-1-1-1.4c-0.5-0.4-1-0.6-1.5-0.8c-0.6-0.2-1.2-0.2-1.8-0.2
			c-0.9,0-1.8,0.2-2.7,0.7c-0.9,0.5-1.6,1.1-2,1.9l0.3-1.9l-0.3-0.3h-0.9l-4.1,1.7l-0.2,0.3v0.7l0.3,0.3h0.3c0.3,0,0.6,0.1,0.8,0.4
			c0.2,0.2,0.4,0.5,0.4,0.8v7.2c0,0.3-0.1,0.6-0.4,0.8c-0.2,0.2-0.5,0.4-0.8,0.4h-0.4l-0.2,0.2v1.3l0.2,0.2h6.8l0.2-0.2V753
			l-0.2-0.2h-0.3c-0.3,0-0.6-0.1-0.8-0.4c-0.2-0.2-0.4-0.5-0.4-0.8V746c0-1.1,0.3-2,0.9-2.7s1.3-1,2.2-1c1.5,0,2.2,0.9,2.2,2.8v6.6
			c0,0.3-0.1,0.6-0.4,0.8c-0.2,0.2-0.5,0.4-0.8,0.4h-0.4l-0.2,0.2v1.3l0.2,0.2h6.8l0.2-0.2V753l-0.2-0.2h-0.4
			c-0.3,0-0.6-0.1-0.8-0.4c-0.2-0.2-0.4-0.5-0.4-0.8V746c0-1.1,0.3-2,0.8-2.7c0.6-0.7,1.3-1,2.2-1c0.7,0,1.3,0.2,1.7,0.7
			c0.4,0.5,0.6,1.2,0.6,2.1v6.6c0,0.3-0.1,0.6-0.4,0.8c-0.2,0.2-0.5,0.4-0.8,0.4h-0.4l-0.2,0.2v1.3l0.2,0.2h6.8l0.2-0.2V753
			L1518.2,752.8z"/>
		<path class="st2" d="M1535.2,751.9h-0.2c-0.3,0-0.6-0.1-0.7-0.3c-0.2-0.2-0.3-0.5-0.3-0.8v-7.5l0.3-2.6l-0.3-0.3h-1l-1.8,1.9h-0.1
			c-0.5-0.6-1.2-1.1-2-1.6c-0.8-0.4-1.8-0.7-3-0.7c-1.4,0-2.6,0.4-3.8,1c-1.1,0.7-2,1.6-2.6,2.7c-0.6,1.2-1,2.4-1,3.8
			c0,0.9,0.1,1.8,0.4,2.6c0.2,0.8,0.6,1.5,1.1,2.1s1,1.1,1.6,1.5s1.2,0.8,1.9,1c0.7,0.2,1.3,0.3,2,0.3c1.1,0,1.9-0.1,2.6-0.4
			c0.7-0.3,1.3-0.7,1.9-1.3v1.3l0.3,0.3h0.9l4.2-1.7h0.1v-0.8L1535.2,751.9z M1529.9,749.4c-0.1,0.6-0.4,1.3-0.6,1.8
			c-0.3,0.6-0.7,1-1.2,1.4s-1.1,0.5-1.8,0.5c-0.7,0-1.3-0.2-1.8-0.5c-0.5-0.4-0.9-0.8-1.2-1.4c-0.3-0.6-0.5-1.2-0.6-1.8
			s-0.2-1.3-0.2-2s0.1-1.4,0.2-2s0.4-1.3,0.6-1.8c0.3-0.6,0.7-1,1.2-1.4s1.1-0.5,1.8-0.5c0.7,0,1.3,0.2,1.8,0.5
			c0.5,0.4,0.9,0.8,1.2,1.4c0.3,0.6,0.5,1.2,0.6,1.8s0.2,1.3,0.2,2C1530.1,748.1,1530.1,748.8,1529.9,749.4z"/>
		<path class="st2" d="M1546.2,740.6c-0.5-0.4-1-0.6-1.7-0.6c-0.9,0-1.7,0.3-2.3,0.8c-0.7,0.5-1.2,1.2-1.6,2l0.3-2.1l-0.3-0.3h-0.9
			l-4.1,1.7l-0.2,0.3v0.7l0.3,0.3h0.3c0.3,0,0.6,0.1,0.8,0.4c0.2,0.2,0.4,0.5,0.4,0.8v7.2c0,0.3-0.1,0.6-0.4,0.8
			c-0.2,0.2-0.5,0.4-0.8,0.4h-0.4l-0.2,0.2v1.3l0.2,0.2h6.8l0.2-0.2V753l-0.2-0.2h-0.4c-0.3,0-0.6-0.1-0.8-0.4
			c-0.2-0.2-0.4-0.5-0.4-0.8v-5.3c0-1,0.2-1.8,0.5-2.6c0.4-0.7,0.8-1.3,1.3-1.6c0,0.6,0.2,1.1,0.6,1.6c0.4,0.4,0.9,0.7,1.5,0.7
			s1.1-0.2,1.5-0.6c0.4-0.4,0.6-0.9,0.6-1.6C1546.9,741.5,1546.7,741,1546.2,740.6z"/>
		<path class="st2" d="M1552.3,734.3c-0.5-0.5-1-0.7-1.7-0.7c-0.6,0-1.2,0.2-1.7,0.7s-0.7,1.1-0.7,1.7c0,0.6,0.2,1.2,0.7,1.7
			s1,0.7,1.7,0.7s1.2-0.2,1.7-0.7s0.7-1,0.7-1.7C1553.1,735.4,1552.8,734.8,1552.3,734.3z M1554.2,753l-0.2-0.2h-0.4
			c-0.3,0-0.6-0.1-0.8-0.4c-0.2-0.2-0.4-0.5-0.4-0.8v-8.4l0.3-2.6l-0.3-0.3h-0.8l-4.7,1.8v0.9l0.3,0.3h0.3c0.3,0,0.6,0.1,0.8,0.4
			c0.2,0.2,0.4,0.5,0.4,0.8v7.2c0,0.3-0.1,0.6-0.4,0.8c-0.2,0.2-0.5,0.4-0.8,0.4h-0.4l-0.2,0.2v1.3l0.2,0.2h6.8l0.2-0.2l0,0
			L1554.2,753L1554.2,753z"/>
		<path class="st2" d="M1570.8,752.8h-0.3c-0.3,0-0.6-0.1-0.8-0.4c-0.2-0.2-0.4-0.5-0.4-0.8v-6.8c0-1.6-0.5-2.8-1.4-3.6
			s-2.1-1.3-3.7-1.3c-1.1,0-2,0.2-2.9,0.7c-0.8,0.5-1.5,1.1-2.1,1.9l0.3-1.9l-0.3-0.3h-0.9l-4.1,1.7l-0.2,0.3v0.7l0.3,0.3h0.3
			c0.3,0,0.5,0.1,0.8,0.4c0.2,0.2,0.4,0.5,0.4,0.8v7.2c0,0.3-0.1,0.6-0.4,0.8c-0.2,0.2-0.5,0.4-0.8,0.4h-0.4l-0.2,0.2l0,0v1.3l0,0
			l0.2,0.2h6.8l0.2-0.2V753l-0.2-0.2h-0.4c-0.3,0-0.5-0.1-0.8-0.4c-0.2-0.2-0.4-0.5-0.4-0.8V746c0-1.1,0.3-2,0.9-2.7s1.4-1,2.3-1
			c0.8,0,1.4,0.2,2,0.7c0.5,0.5,0.7,1.2,0.7,2.1v6.7c0,0.3-0.1,0.6-0.4,0.8c-0.2,0.2-0.5,0.4-0.8,0.4h-0.4l-0.2,0.2v1.3l0.2,0.2h6.8
			l0.2-0.2V753L1570.8,752.8z"/>
		<path class="st2" d="M1585.8,749.3l-0.3-0.1l-0.3,0.1c-1.3,1.9-3.1,2.9-5.4,2.9c-1.3,0-2.4-0.3-3.2-1c-0.8-0.7-1.4-1.6-1.5-2.7
			l10.5-0.9l0.4-0.2c0-1-0.1-1.9-0.4-2.8c-0.3-0.9-0.7-1.7-1.3-2.3c-0.6-0.7-1.3-1.2-2.2-1.7c-0.9-0.4-2-0.6-3.1-0.6
			c-1.4,0-2.6,0.3-3.8,1s-2.1,1.5-2.8,2.7c-0.7,1.1-1,2.4-1,3.7c0,1.4,0.3,2.7,1,3.8c0.6,1.2,1.6,2.1,2.7,2.7c1.2,0.7,2.5,1,4,1
			c1.7,0,3.2-0.5,4.4-1.4c1.2-0.9,2.1-2.2,2.6-3.9L1585.8,749.3z M1576.2,743c0.7-0.9,1.6-1.3,2.8-1.3c1,0,1.7,0.3,2.3,0.9
			c0.6,0.6,0.9,1.4,0.9,2.5c0,0.3-0.1,0.6-0.3,0.8c-0.2,0.2-0.5,0.4-1,0.4l-5.8,0.5l-0.1-0.2C1575.1,745.1,1575.5,743.9,1576.2,743z
			"/>
		<path class="st2" d="M1463.3,778.6l-0.3-0.1l-0.3,0.1c-1.3,1.9-3.1,2.9-5.4,2.9c-1.3,0-2.4-0.3-3.2-1c-0.8-0.7-1.4-1.6-1.5-2.7
			l10.5-0.9l0.4-0.2c0-1-0.1-1.9-0.4-2.8c-0.3-0.9-0.7-1.6-1.3-2.3c-0.6-0.7-1.3-1.2-2.2-1.7c-0.9-0.4-2-0.6-3.1-0.6
			c-1.4,0-2.6,0.3-3.8,1c-1.2,0.6-2.1,1.5-2.8,2.7c-0.7,1.1-1,2.4-1,3.7c0,1.4,0.3,2.7,1,3.8c0.7,1.2,1.6,2.1,2.8,2.8
			c1.2,0.7,2.5,1,4,1c1.7,0,3.2-0.5,4.4-1.4c1.2-0.9,2.1-2.2,2.6-3.9L1463.3,778.6z M1453.7,772.3c0.7-0.9,1.6-1.3,2.8-1.3
			c1,0,1.7,0.3,2.3,0.9c0.6,0.6,0.9,1.4,0.9,2.5c0,0.3-0.1,0.6-0.3,0.8c-0.2,0.2-0.5,0.4-1,0.4l-5.8,0.5l-0.1-0.2
			C1452.6,774.4,1453,773.2,1453.7,772.3z"/>
		<path class="st2" d="M1478.6,782.1h-0.8c-0.2,0-0.4,0-0.5-0.1s-0.3-0.3-0.5-0.5l-4.3-5.6l3-3.7c0.2-0.3,0.5-0.5,0.7-0.6
			s0.5-0.2,0.8-0.2h0.5l0.2-0.2v-1.3l-0.2-0.2h-5l-0.2,0.2v1.3l0.2,0.2h0.4c0.2,0,0.4,0.1,0.5,0.2c0.1,0.1,0.2,0.3,0.2,0.5
			s-0.1,0.4-0.2,0.6l-1.7,2.2l-1.6-2.2c-0.1-0.2-0.2-0.4-0.2-0.6c0-0.2,0.1-0.3,0.2-0.5c0.1-0.1,0.3-0.2,0.5-0.2h0.3l0.2-0.2v-1.3
			l-0.2-0.2h-6.6l-0.2,0.2v1.3l0.2,0.2h0.6c0.1,0,0.3,0,0.4,0.1s0.2,0.2,0.3,0.2c0.1,0.1,0.2,0.2,0.4,0.4l3.8,5l-3.5,4.3
			c-0.2,0.2-0.3,0.4-0.5,0.5s-0.5,0.2-0.8,0.2h-1.1l-0.2,0.2v1.2l0.2,0.2h5.9l0.2-0.2v-1.2l-0.2-0.2h-0.6c-0.5,0-0.7-0.2-0.7-0.6
			c0-0.2,0.1-0.4,0.2-0.6l2-2.5l1.9,2.5c0.1,0.1,0.2,0.4,0.2,0.6c0,0.2-0.1,0.3-0.2,0.5c-0.1,0.1-0.3,0.2-0.5,0.2h-0.6l-0.2,0.2v1.2
			l0.2,0.2h7.2l0.2-0.2v-1.2L1478.6,782.1z"/>
		<path class="st2" d="M1493.8,771.2c-1.3-1.3-3-2-5-2c-1,0-1.9,0.2-2.8,0.7c-0.8,0.5-1.5,1.1-2,1.9l0.3-1.9l-0.3-0.3h-0.9l-4.1,1.7
			l-0.2,0.3v0.7l0.3,0.3h0.3c0.3,0,0.6,0.1,0.8,0.4c0.2,0.2,0.4,0.5,0.4,0.8v13.7c0,0.3-0.1,0.6-0.4,0.8c-0.2,0.2-0.5,0.4-0.8,0.4
			h-0.4l-0.2,0.2v1.3l0.2,0.2h6.8l0.2-0.2v-1.3l-0.2-0.2h-0.4c-0.3,0-0.6-0.1-0.8-0.4c-0.2-0.2-0.4-0.5-0.4-0.8v-5.1
			c0.5,0.5,1.2,1,2,1.3c0.8,0.4,1.6,0.5,2.5,0.5c1,0,1.9-0.2,2.7-0.5c0.8-0.4,1.6-0.8,2.2-1.4c0.6-0.6,1.1-1.4,1.5-2.4
			s0.6-2,0.6-3.2C1495.7,774.4,1495.1,772.5,1493.8,771.2z M1491.7,778.9c-0.1,0.7-0.4,1.3-0.7,1.8c-0.3,0.6-0.7,1-1.2,1.3
			s-1.2,0.5-1.9,0.5c-0.7,0-1.3-0.2-1.8-0.5s-0.9-0.8-1.2-1.3c-0.3-0.5-0.5-1.2-0.7-1.8c-0.1-0.7-0.2-1.4-0.2-2.2s0.1-1.5,0.2-2.2
			s0.4-1.3,0.7-1.8c0.3-0.6,0.7-1,1.2-1.3s1.1-0.5,1.8-0.5c0.7,0,1.3,0.1,1.9,0.5c0.5,0.3,0.9,0.7,1.2,1.3c0.3,0.6,0.5,1.2,0.7,1.8
			c0.1,0.7,0.2,1.4,0.2,2.2C1491.9,777.5,1491.9,778.2,1491.7,778.9z"/>
		<path class="st2" d="M1510.8,778.6l-0.3-0.1l-0.3,0.1c-1.3,1.9-3.1,2.9-5.4,2.9c-1.3,0-2.4-0.3-3.2-1c-0.9-0.7-1.4-1.6-1.5-2.7
			l10.5-0.9l0.4-0.2c0-1-0.1-1.9-0.4-2.8c-0.3-0.9-0.7-1.6-1.3-2.3c-0.6-0.7-1.3-1.2-2.2-1.7c-0.9-0.4-1.9-0.6-3.1-0.6
			c-1.4,0-2.6,0.3-3.8,1c-1.2,0.6-2.1,1.5-2.8,2.7c-0.7,1.1-1,2.4-1,3.7c0,1.4,0.3,2.7,1,3.8c0.6,1.2,1.6,2.1,2.7,2.8
			c1.2,0.7,2.5,1,4,1c1.7,0,3.2-0.5,4.4-1.4c1.2-0.9,2.1-2.2,2.6-3.9L1510.8,778.6z M1501.1,772.3c0.7-0.9,1.7-1.3,2.8-1.3
			c0.9,0,1.7,0.3,2.3,0.9c0.6,0.6,0.9,1.4,0.9,2.5c0,0.3-0.1,0.6-0.3,0.8c-0.2,0.2-0.5,0.4-1,0.4l-5.8,0.5l-0.1-0.2
			C1500,774.4,1500.4,773.2,1501.1,772.3z"/>
		<path class="st2" d="M1521.8,769.9c-0.5-0.4-1-0.6-1.7-0.6c-0.9,0-1.7,0.3-2.3,0.8c-0.7,0.5-1.2,1.2-1.6,2l0.3-2.1l-0.3-0.3h-0.9
			l-4.1,1.7l-0.2,0.3v0.6l0.3,0.3h0.3c0.3,0,0.6,0.1,0.8,0.4c0.2,0.2,0.4,0.5,0.4,0.8v7.2c0,0.3-0.1,0.5-0.4,0.8
			c-0.2,0.2-0.5,0.4-0.8,0.4h-0.4l-0.2,0.2v1.2l0.2,0.2h6.8l0.2-0.2v-1.2l-0.2-0.2h-0.3c-0.3,0-0.6-0.1-0.8-0.4
			c-0.2-0.2-0.4-0.5-0.4-0.8v-5.3c0-1,0.2-1.8,0.5-2.6c0.4-0.8,0.8-1.3,1.3-1.6c0,0.6,0.2,1.1,0.6,1.6c0.4,0.4,0.9,0.6,1.5,0.6
			s1.1-0.2,1.5-0.6c0.4-0.4,0.6-1,0.6-1.6C1522.5,770.8,1522.3,770.3,1521.8,769.9z"/>
		<path class="st2" d="M1527.9,763.6c-0.5-0.5-1-0.7-1.7-0.7s-1.2,0.2-1.7,0.7s-0.7,1.1-0.7,1.7c0,0.6,0.2,1.2,0.7,1.7
			s1,0.7,1.7,0.7s1.2-0.2,1.7-0.7s0.7-1,0.7-1.7C1528.6,764.7,1528.4,764.1,1527.9,763.6z M1529.6,782.1h-0.4
			c-0.3,0-0.5-0.1-0.8-0.4c-0.2-0.2-0.4-0.5-0.4-0.8v-8.4l0.3-2.6l-0.3-0.3h-0.8l-4.7,1.8v0.9l0.3,0.3h0.3c0.3,0,0.5,0.1,0.8,0.4
			c0.2,0.2,0.4,0.5,0.4,0.8v7.2c0,0.3-0.1,0.5-0.4,0.8c-0.2,0.2-0.5,0.4-0.8,0.4h-0.4l-0.2,0.2v1.2l0.2,0.2h6.8l0.2-0.2v-1.2
			L1529.6,782.1z"/>
		<path class="st2" d="M1544.6,778.6l-0.3-0.1l-0.3,0.1c-1.3,1.9-3.1,2.9-5.4,2.9c-1.3,0-2.4-0.3-3.2-1c-0.8-0.7-1.4-1.6-1.5-2.7
			l10.5-0.9l0.4-0.2c0-1-0.1-1.9-0.4-2.8c-0.3-0.9-0.7-1.6-1.3-2.3c-0.6-0.7-1.3-1.2-2.2-1.7c-0.9-0.4-1.9-0.6-3.1-0.6
			c-1.4,0-2.6,0.3-3.8,1c-1.2,0.6-2.1,1.5-2.8,2.7c-0.7,1.1-1,2.4-1,3.7c0,1.4,0.3,2.7,1,3.8c0.6,1.2,1.6,2.1,2.7,2.8
			c1.2,0.7,2.5,1,4,1c1.7,0,3.2-0.5,4.4-1.4c1.2-0.9,2.1-2.2,2.6-3.9L1544.6,778.6z M1534.9,772.3c0.7-0.9,1.6-1.3,2.8-1.3
			c1,0,1.7,0.3,2.3,0.9c0.6,0.6,0.8,1.4,0.8,2.5c0,0.3-0.1,0.6-0.3,0.8c-0.2,0.2-0.5,0.4-1,0.4l-5.8,0.5l-0.1-0.2
			C1533.8,774.4,1534.2,773.2,1534.9,772.3z"/>
		<path class="st2" d="M1561.5,782.1h-0.4c-0.3,0-0.6-0.1-0.8-0.4c-0.2-0.2-0.4-0.5-0.4-0.8v-6.8c0-1.6-0.5-2.8-1.4-3.6
			s-2.1-1.3-3.7-1.3c-1.1,0-2,0.2-2.9,0.7c-0.8,0.5-1.5,1.1-2,1.9l0.3-1.9l-0.3-0.3h-0.9l-4.1,1.7l-0.2,0.3v0.6l0.3,0.3h0.3
			c0.3,0,0.6,0.1,0.8,0.4c0.2,0.2,0.4,0.5,0.4,0.8v7.2c0,0.3-0.1,0.5-0.4,0.8c-0.2,0.2-0.5,0.4-0.8,0.4h-0.4l-0.2,0.2v1.2l0.2,0.2
			h6.8l0.2-0.2v-1.2l-0.2-0.2h-0.4c-0.3,0-0.5-0.1-0.8-0.4c-0.2-0.2-0.4-0.5-0.4-0.8v-5.7c0-1.2,0.3-2.1,0.9-2.8s1.4-1,2.3-1
			c0.8,0,1.5,0.2,2,0.7s0.7,1.2,0.7,2.1v6.7c0,0.3-0.1,0.5-0.4,0.8c-0.2,0.2-0.5,0.4-0.8,0.4h-0.4l-0.2,0.2v1.2l0.2,0.2h6.8l0.2-0.2
			v-1.2L1561.5,782.1z"/>
		<path class="st2" d="M1575,779.1l-0.3-0.1l-0.3,0.1c-0.9,1.7-2.3,2.5-4.2,2.5c-0.9,0-1.8-0.2-2.5-0.7s-1.2-1.1-1.6-1.9
			c-0.4-0.8-0.5-1.6-0.5-2.6c0-0.7,0.1-1.4,0.2-2s0.4-1.2,0.7-1.8s0.7-1,1.2-1.3s1.1-0.5,1.8-0.5c0.9,0,1.6,0.2,2.2,0.7
			s0.8,1.2,0.8,2v0.5l0.2,0.2h1.1l0.2-0.2l-0.1-3.6l-0.2-0.3c-1.2-0.7-2.6-1.1-4.3-1.1c-1,0-1.9,0.2-2.9,0.5
			c-0.9,0.3-1.7,0.8-2.5,1.4c-0.7,0.6-1.3,1.4-1.7,2.4c-0.4,1-0.6,2-0.6,3.1s0.2,2.2,0.6,3.1c0.4,1,0.9,1.7,1.6,2.4
			c0.7,0.6,1.4,1.1,2.3,1.4c0.8,0.4,1.7,0.5,2.7,0.5c0.9,0,1.7-0.1,2.4-0.4c0.7-0.2,1.3-0.6,1.8-1.1s0.8-1,1.1-1.5
			c0.3-0.5,0.5-1.1,0.7-1.8L1575,779.1z"/>
		<path class="st2" d="M1589.9,778.6l-0.3-0.1l-0.3,0.1c-1.3,1.9-3.1,2.9-5.4,2.9c-1.3,0-2.4-0.3-3.2-1c-0.9-0.7-1.4-1.6-1.5-2.7
			l10.5-0.9l0.4-0.2c0-1-0.1-1.9-0.4-2.8c-0.3-0.9-0.7-1.6-1.3-2.3c-0.6-0.7-1.3-1.2-2.2-1.7c-0.9-0.4-1.9-0.6-3.1-0.6
			c-1.4,0-2.6,0.3-3.8,1c-1.2,0.6-2.1,1.5-2.8,2.7c-0.7,1.1-1,2.4-1,3.7c0,1.4,0.3,2.7,1,3.8c0.6,1.2,1.6,2.1,2.7,2.8
			c1.2,0.7,2.5,1,4,1c1.7,0,3.2-0.5,4.4-1.4c1.2-0.9,2.1-2.2,2.6-3.9L1589.9,778.6z M1580.3,772.3c0.7-0.9,1.7-1.3,2.8-1.3
			c0.9,0,1.7,0.3,2.3,0.9c0.6,0.6,0.9,1.4,0.9,2.5c0,0.3-0.1,0.6-0.3,0.8c-0.2,0.2-0.5,0.4-1,0.4l-5.8,0.5l-0.1-0.2
			C1579.2,774.4,1579.5,773.2,1580.3,772.3z"/>
	</g>
</g>
<g>
	<g>
		<path class="st2" d="M698.6,770.5c-2,0-3.1-1.1-3.1-2.9v-50.8h-15v8.1h-1.1c-2.9-4.1-9-9.8-20.1-9.8c-17.7,0-30.9,14.7-30.9,34.8
			s13.4,34.8,31.3,34.8c11.5,0,17.4-6,19.9-10h1.1c0.5,4.3,3.5,8.4,9.5,8.4h11.3v-12.7h-2.9V770.5z M662.4,770.3
			c-10.5,0-18.8-7.7-18.8-20.3c0-12.3,8-20.7,18.6-20.7c10.1,0,18.6,7.5,18.6,20.7C680.9,761.3,673.7,770.3,662.4,770.3z"/>
		<path class="st2" d="M727.8,735.4c0-3.9,3.8-6.7,10.1-6.7s10.6,2.7,11.9,8.5l13.3-3.7c-2.4-11.9-12.4-18.4-25.2-18.4
			c-15.1,0-24.5,8.7-24.5,20c0,27,36,15.7,36,29.1c0,4.4-3.8,7.1-11,7.1c-7,0-11.8-3.3-13.2-10.3l-14.2,3.2
			c1.8,13.5,12.5,20.5,27,20.5c16.3,0,26.7-8.9,26.7-21.9C764.8,736.1,727.8,747.8,727.8,735.4z"/>
		<path class="st2" d="M840.7,749.5c0-19.8-12.3-34.5-32.6-34.5c-17.9,0-33.2,14.1-33.2,35c0,20.3,13.6,34.7,33.8,34.7
			c13.8,0,26-6.8,30.3-20.6l-13.7-3.3c-2.4,7.4-9.4,11.2-16.7,11.2c-10.9,0-18.1-7.1-18.2-18.3h50.3L840.7,749.5L840.7,749.5z
			 M790.5,742.8c0.9-8,8.1-14.7,17.6-14.7c9.1,0,16.6,5.7,17.4,14.7H790.5z"/>
	</g>
	<rect x="565.3" y="775.3" class="st2" width="0.1" height="7.9"/>
	<rect x="565.3" y="775.3" class="st2" width="0.1" height="7.9"/>
	<g>
		<path class="st2" d="M837.2,695.1v-14.3h-287v102.4h15.1v-7.9h1.1c2.7,3.4,8.2,9.5,19.6,9.5c17.9,0,31.7-14.7,31.7-34.8
			c0-19.8-12.9-34.8-30.7-34.8c-11.8,0-17.6,6.3-20.5,10.1h-1.1v-30.2H837.2z M583.9,729.2c10.5,0,18.6,8.6,18.6,20.9
			c0,12.5-8.4,20.8-18.9,20.8c-10,0-16.9-7.5-18.2-17.1c-0.2-1.2-0.3-2.4-0.3-3.6c0-1.4,0.1-2.7,0.3-3.9
			C566.9,735.4,574.7,729.2,583.9,729.2z"/>
	</g>
	<rect x="565.3" y="775.3" class="st2" width="0.1" height="7.9"/>
</g>
<g>
	<g>
		<path d="M684.1,506.8c-2,0-3.1-1.1-3.1-2.9v-50.8h-15v8.1h-1c-2.9-4.1-9-9.8-20.1-9.8c-17.7,0-30.9,14.7-30.9,34.8
			c0,20.1,13.4,34.8,31.3,34.8c11.5,0,17.4-6,19.9-10h1.1c0.5,4.3,3.5,8.4,9.5,8.4H687v-12.7L684.1,506.8L684.1,506.8z M647.9,506.7
			c-10.5,0-18.8-7.7-18.8-20.3c0-12.3,8-20.7,18.6-20.7c10.1,0,18.6,7.5,18.6,20.7C666.4,497.7,659.2,506.7,647.9,506.7z"/>
		<path d="M713.3,471.7c0-3.9,3.8-6.7,10.1-6.7s10.6,2.7,11.9,8.5l13.3-3.7c-2.4-11.9-12.4-18.4-25.2-18.4c-15.1,0-24.5,8.7-24.5,20
			c0,27,36,15.7,36,29.1c0,4.4-3.8,7.1-11,7.1c-7,0-11.8-3.3-13.2-10.3l-14.2,3.2c1.8,13.5,12.5,20.5,27,20.5
			c16.3,0,26.7-8.9,26.7-21.9C750.2,472.5,713.3,484.2,713.3,471.7z"/>
		<path d="M826.2,485.9c0-19.8-12.3-34.5-32.6-34.5c-17.9,0-33.2,14.1-33.2,35c0,20.3,13.6,34.7,33.8,34.7c13.8,0,26-6.8,30.3-20.6
			l-13.7-3.3c-2.4,7.4-9.4,11.2-16.7,11.2c-10.9,0-18.1-7.1-18.2-18.3h50.3L826.2,485.9L826.2,485.9z M776,479.2
			c0.9-8,8.1-14.7,17.6-14.7c9.1,0,16.6,5.7,17.4,14.7H776z"/>
	</g>
	<rect x="550.8" y="511.6" width="0.1" height="7.9"/>
	<rect x="550.8" y="511.6" width="0.1" height="7.9"/>
	<g>
		<path d="M822.7,431.4v-14.3h-287v102.4h15.1v-7.9h1.1c2.7,3.4,8.2,9.5,19.6,9.5c17.9,0,31.7-14.7,31.7-34.8
			c0-19.8-12.9-34.8-30.7-34.8c-11.8,0-17.6,6.3-20.5,10.1h-1.1v-30.2H822.7z M569.4,465.5c10.5,0,18.6,8.6,18.6,20.9
			c0,12.5-8.4,20.8-18.9,20.8c-10,0-16.9-7.5-18.2-17.1c-0.2-1.2-0.3-2.4-0.3-3.6c0-1.4,0.1-2.7,0.3-3.9
			C552.4,471.7,560.2,465.5,569.4,465.5z"/>
	</g>
	<rect x="550.8" y="511.6" width="0.1" height="7.9"/>
</g>
<g>
	<rect x="275" y="511.6" class="st2" width="0.1" height="7.9"/>
	<rect x="275" y="511.6" class="st2" width="0.1" height="7.9"/>
	<g>
		<path class="st2" d="M325,431.4v-14.3h-65.1v102.4H275v-7.9h1.1c2.7,3.4,8.2,9.5,19.6,9.5c17.9,0,31.7-14.7,31.7-34.8
			c0-19.8-12.9-34.8-30.7-34.8c-11.8,0-17.6,6.3-20.5,10.1h-1.1v-30.2H325z M293.6,465.5c10.5,0,18.6,8.6,18.6,20.9
			c0,12.5-8.4,20.8-18.9,20.8c-10,0-16.9-7.5-18.2-17.1c-0.2-1.2-0.3-2.4-0.3-3.6c0-1.4,0.1-2.7,0.3-3.9
			C276.6,471.7,284.4,465.5,293.6,465.5z"/>
	</g>
	<rect x="275" y="511.6" class="st2" width="0.1" height="7.9"/>
</g>
<g>
	<rect x="268.4" y="775.3" width="0.1" height="7.9"/>
	<rect x="268.4" y="775.3" width="0.1" height="7.9"/>
	<g>
		<path d="M318.3,695.1v-14.3h-65.1v102.4h15.1v-7.9h1.1c2.7,3.4,8.2,9.5,19.6,9.5c17.9,0,31.7-14.7,31.7-34.8
			c0-19.8-12.9-34.8-30.7-34.8c-11.8,0-17.6,6.3-20.5,10.1h-1.1v-30.2H318.3z M287,729.2c10.5,0,18.6,8.6,18.6,20.9
			c0,12.5-8.4,20.8-18.9,20.8c-10,0-16.9-7.5-18.2-17.1c-0.2-1.2-0.3-2.4-0.3-3.6c0-1.4,0.1-2.7,0.3-3.9
			C270,735.4,277.8,729.2,287,729.2z"/>
	</g>
	<rect x="268.4" y="775.3" width="0.1" height="7.9"/>
</g>
</svg>
