<?xml version="1.0" encoding="utf-8"?>
<!-- Generator: Adobe Illustrator 22.0.1, SVG Export Plug-In . SVG Version: 6.00 Build 0)  -->
<svg version="1.1" id="Calque_1" xmlns="http://www.w3.org/2000/svg" xmlns:xlink="http://www.w3.org/1999/xlink" x="0px" y="0px"
	 viewBox="0 0 699.9 393.4" style="enable-background:new 0 0 699.9 393.4;" xml:space="preserve">
<path d="M26.6,27.3v-4.8h203.5v4.8c-0.2,0-0.4,0.1-0.6,0.2c-19.5,4.7-34.7,22.3-34.7,43.2l0.7,207.2c0,24.6,19.9,44.5,44.5,44.5
	c3.8,0,7.4-0.5,10.9-1.3c0.2-0.1,0.4-0.1,0.6-0.2v4.9c-35.9,15.5-67,48.5-111.3,48.5c-56.3,0-78.8-34.5-78.8-99.2V74.4
	c0.1-1.2,0.2-2.5,0.2-3.7c0-1.3-0.1-2.5-0.2-3.7c-1.6-19.3-15.5-35.1-33.9-39.5C27.1,27.4,26.9,27.3,26.6,27.3z"/>
<path d="M452.7,365.1v4.8H249.2V365c0.2,0,0.4-0.1,0.6-0.2c19.5-4.7,34.7-22.3,34.7-43.2l-0.7-207.2c0-24.6-19.9-44.5-44.5-44.5
	c-3.8,0-7.4,0.5-10.9,1.3c-0.2,0.1-0.4,0.1-0.6,0.2v-4.9c35.9-15.5,67-48.5,111.3-48.5c56.3,0,78.8,34.5,78.8,99.2v200.7
	c-0.1,1.2-0.2,2.5-0.2,3.7c0,1.3,0.1,2.5,0.2,3.7c1.6,19.3,15.5,35.1,33.9,39.5C452.1,364.9,452.4,365,452.7,365.1z"/>
<path d="M675,365.1v4.8H471.6V365c0.2,0,0.4-0.1,0.6-0.2c19.5-4.7,34.7-22.3,34.7-43.2l-0.7-207.2c0-24.6-19.9-44.5-44.5-44.5
	c-3.8,0-7.4,0.5-10.9,1.3c-0.2,0.1-0.4,0.1-0.6,0.2v-4.9c35.9-15.5,67-48.5,111.3-48.5c56.3,0,78.8,34.5,78.8,99.2v200.7
	c-0.1,1.2-0.2,2.5-0.2,3.7c0,1.3,0.1,2.5,0.2,3.7c1.6,19.3,15.5,35.1,33.9,39.5C674.5,364.9,674.8,365,675,365.1z"/>
</svg>
