<?xml version="1.0" encoding="utf-8"?>
<!-- Generator: Adobe Illustrator 22.0.1, SVG Export Plug-In . SVG Version: 6.00 Build 0)  -->
<svg version="1.1" id="Calque_1" xmlns="http://www.w3.org/2000/svg" xmlns:xlink="http://www.w3.org/1999/xlink" x="0px" y="0px"
	 viewBox="0 0 1920 1080" style="enable-background:new 0 0 1920 1080;" xml:space="preserve">
<style type="text/css">
	.st0{fill:none;}
	.st1{fill:url(#_x39_0_xA0__x25__6_ppp);}
	.st2{fill:#FFFFFF;}
</style>
<pattern  width="48" height="48" patternUnits="userSpaceOnUse" id="_x39_0_xA0__x25__6_ppp" viewBox="10.8 -58.8 48 48" style="overflow:visible;">
	<g>
		<rect x="10.8" y="-58.8" class="st0" width="48" height="48"/>
		<g>
			<path d="M34.8,0c6,0,10.8-4.8,10.8-10.8c0-6-4.8-10.8-10.8-10.8c-6,0-10.8,4.8-10.8,10.8C24-4.8,28.8,0,34.8,0z"/>
			<circle cx="58.8" cy="-10.8" r="10.8"/>
			<path d="M34.8-24c6,0,10.8-4.8,10.8-10.8c0-6-4.8-10.8-10.8-10.8c-6,0-10.8,4.8-10.8,10.8C24-28.8,28.8-24,34.8-24z"/>
			<circle cx="58.8" cy="-34.8" r="10.8"/>
			<path d="M46.8-12c6,0,10.8-4.8,10.8-10.8c0-6-4.8-10.8-10.8-10.8c-6,0-10.8,4.8-10.8,10.8C36-16.8,40.8-12,46.8-12z"/>
			<path d="M22.8-12c6,0,10.8-4.8,10.8-10.8c0-6-4.8-10.8-10.8-10.8c-6,0-10.8,4.8-10.8,10.8C12-16.8,16.8-12,22.8-12z"/>
			<path d="M46.8-36c6,0,10.8-4.8,10.8-10.8c0-6-4.8-10.8-10.8-10.8c-6,0-10.8,4.8-10.8,10.8C36-40.8,40.8-36,46.8-36z"/>
			<path d="M22.8-36c6,0,10.8-4.8,10.8-10.8c0-6-4.8-10.8-10.8-10.8c-6,0-10.8,4.8-10.8,10.8C12-40.8,16.8-36,22.8-36z"/>
		</g>
		<g>
			<circle cx="10.8" cy="-10.8" r="10.8"/>
			<circle cx="10.8" cy="-34.8" r="10.8"/>
		</g>
		<g>
			<path d="M34.8-48c6,0,10.8-4.8,10.8-10.8c0-6-4.8-10.8-10.8-10.8c-6,0-10.8,4.8-10.8,10.8C24-52.8,28.8-48,34.8-48z"/>
			<circle cx="58.8" cy="-58.8" r="10.8"/>
		</g>
		<g>
			<circle cx="10.8" cy="-58.8" r="10.8"/>
		</g>
	</g>
</pattern>
<g>
	<rect class="st1" width="1920" height="1080"/>
</g>
<g>
	<path class="st2" d="M279,542.7c0-12.8,10.1-22.4,23.5-22.4c12.4,0,21.7,8.7,21.7,20.3c0,10.6-8.7,19.7-18.9,19.7
		c-8.4,0-14.4-5.9-14.4-11.4c0-3.4,2.2-6.2,5.6-6.2c3,0,5.4,2.2,5.4,5.1c0,2.3-1.3,4-4.2,4.8c-1.3,0.4-1.8,1.2-1.8,2.2
		c0,2.1,3.5,5.2,9.4,5.2c10.1,0,18.7-9.1,18.7-19.5c0-11.4-9.2-20.1-21.4-20.1c-13.3,0-23.2,9.5-23.2,22.2
		c0,13.5,10.9,23.4,25.3,23.4c29.7,0,83.9-31,136.4-60.5c-15.4-5.4-25.9-18.7-25.9-34c0-22.2,15.6-37.1,35.4-37.1
		c19.1,0,33.9,18.9,48.8,39.5c25-12.4,46.7-21,61.3-21c6.2,0,12.8,1.8,19.7,5.8c11.4,6.7,19.1,19.1,19.1,30.8
		c-0.1,22.4-15.3,37.6-37.6,37.6c-10.8,0-20.3-4.6-28.9-11.8c-2.5,3-4.6,7-6.2,12.2h-0.5c0.7-2.2,1.4-4.6,1.4-6.9
		c0-7.1-5.8-11.5-17.5-13v-0.7c4.2,0.5,9.8,0.9,15.1,1.1c-8.1-8.5-15.7-18.9-23-29.1c-16.3,8.4-34.2,18.1-52.6,28.1
		c8.3,1.1,13.7,1.2,18.9,1.2c6.6,0,13.8-0.2,24.2-1.2v0.7c-12.6,1.8-16,3.2-16,6.6c0,1.1,0.3,2.4,0.9,3.9l27.5,73.5l-3.5,10.5h-6.4
		l-31.6-84c-3-7.9-5.2-9.2-14.4-10.5c-0.3-0.1-0.5-0.1-0.7-0.1c-53.6,28.9-111.2,58.9-144.2,58.9C290,566.5,279,556.3,279,542.7z
		 M441.7,505.3c19.8-11.1,39.3-22,57.2-31c-14.8-20.6-29.6-39.3-48.4-39.3c-19.7,0-35.1,14.8-35.1,36.7
		C415.5,486.6,426.2,500.1,441.7,505.3z M599.1,489.6c0-11.7-7.7-23.9-19-30.4c-5.2-3-10.1-4.4-15-4.4c-12.4,0-35,10-62.3,24
		c7.5,10.4,15,20.8,23.2,29.4c2,0.1,3.9,0.1,5.7,0.1c5.2,0,8.7-0.2,16.1-1.2v0.7c-6.2,0.9-10.9,3.1-14.4,7.3
		c8.5,7.1,17.9,11.7,28.6,11.7C584.1,526.8,599.1,511.8,599.1,489.6z"/>
	<path class="st2" d="M552.5,540.8c6.5,0,10.5-1,15.8-4.4c1.3,0,2.4,0.5,3.2,1.1v56.8c0,5.1,0.8,5.6,11.7,7.3v0.7
		c-9-0.9-12.9-1.2-18.3-1.2c-5.4,0-9.3,0.3-18.3,1.2v-0.7c10.9-1.7,11.7-2.2,11.7-7.3v-42.5c0-8.2-0.9-8.8-15.2-10.7v-0.7
		C546.9,540.6,549.9,540.8,552.5,540.8z M564.6,508.1c5.2,0,9.5,4.3,9.5,9.4c0,5.2-4.3,9.5-9.5,9.5c-5.1,0-9.3-4.2-9.3-9.5
		C555.2,512.4,559.5,508.1,564.6,508.1z"/>
	<path class="st2" d="M628.6,604.1c-20.1,0-33.6-13.6-33.6-32.8c0-16.4,10-28.9,25.6-32l0.4,1c-8.4,3.4-11.9,13.4-11.9,31
		c0,22.2,5.6,32.3,19.5,32.3V604.1z M767.5,485.4c0,12.8-10.1,22.4-23.5,22.4c-12.4,0-21.7-8.7-21.7-20.3c0-10.6,8.7-19.7,18.9-19.7
		c8.4,0,14.4,5.9,14.4,11.4c0,3.4-2.2,6.2-5.6,6.2c-3,0-5.4-2.2-5.4-5.1c0-2.3,1.3-4,4.2-4.8c1.3-0.4,1.8-1.2,1.8-2.2
		c0-2.1-3.5-5.2-9.4-5.2c-10.1,0-18.7,9.1-18.7,19.5c0,11.5,9.2,20.1,21.4,20.1c13.3,0,23.2-9.5,23.2-22.2
		c0-13.5-10.9-23.4-25.3-23.4c-24,0-58.7,36-87.6,55.9c0,0.1,0,0.3,0,0.4c0,5-1.7,10.9-5.6,17.7c-1.4,2.4-2.3,5.9-2.3,10.2
		c0,3.6,0.1,6,1.3,17.1h-0.5c-2.6-13.4-6.2-20.8-12.6-23.4l0.2-0.6c2.9,0.7,5.6,1.5,7.3,1.5c2.1,0,3.6-0.8,5-2.6
		c0.5-0.7,1-1.5,1.5-2.2c4-6.8,5.6-12.7,5.6-17.6c0-0.1,0-0.2,0-0.2c-10.9,7.5-21,12.7-29.4,12.7c-10.3,0-16.5-6.3-16.5-13.7
		c0-4,1.8-8.3,5.8-12.2c4.3-4.2,10.8-6.4,17.3-6.4c11.3,0.1,19.6,5.4,22.2,13.8c27.4-19.4,60.9-50.7,88.5-50.7
		C756.5,461.7,767.5,471.9,767.5,485.4z M653.1,512.6c-2.6-8.4-10.9-13.7-22-13.7c-6.4,0-12.9,2.1-17.1,6.3c-4,3.9-5.6,8.1-5.6,11.9
		c0,5.8,4.7,10.3,12.9,10.3C630,527.4,640.9,521.2,653.1,512.6z"/>
	<path class="st2" d="M693.7,601.3c-3.3,2-6.7,2.8-9.9,2.8c-9.1,0-16.7-6.9-16.7-16.7v-46.3h-6.7v-0.7h6.7v-12.8
		c4.4-2.9,8-7.5,9.8-10.3c1.3,0,2.4,0.4,3.3,1.1v22h12v0.7h-12v41.8c0,12.1,3.4,19.1,9.1,19.1c1.3,0,2.7-0.4,4.2-1.2L693.7,601.3z"
		/>
	<path class="st2" d="M724.2,598.7c1.1,1.5,2.3,2.9,3.8,4.1c-0.3-1.5-0.4-3-0.4-4.6c0-12.8,11.7-26.1,25.6-26.1
		c1.1,0,2.2,0.1,3.3,0.2c0-0.3,0-0.7,0-1.1c0-18.6-3.1-27.3-9.6-30.6l0.3-0.9c13.1,3.8,23.4,15.5,23.4,31.4c0,2.2-0.2,4.3-0.5,6.4
		c3.8,2.9,6.2,6.8,6.2,11.3c0,2.7-0.9,5.6-2.8,8.7c-5,7.5-15,12.1-26.1,12.1c-6,0-12.2-1.6-17.7-4.4c1.1,6.1,4.4,12,9.9,16.8
		c11.3-7.5,20.7-12.6,27.2-12.6c5,0,8.8,3.4,8.8,7.7c0,7.1-6.9,12.5-16,12.5c-5.9,0-12-1.9-17.1-5.1c-6.8,4.3-14.5,9.7-22.6,15.4
		c75.3,24,166.3,57.1,197,57.1c16.7,0,29.5-10.5,29.5-24.3c0-12.6-9.9-22.2-23.2-22.2c-12.2,0-21.4,8.6-21.4,20.1
		c0,10.4,8.6,19.5,18.7,19.5c5.9,0,9.4-3,9.4-5.2c0-1-0.5-1.8-1.8-2.2c-2.8-0.9-4.2-2.6-4.2-4.8c0-2.9,2.3-5.1,5.4-5.1
		c3.4,0,5.6,2.8,5.6,6.2c0,5.5-6,11.4-14.4,11.4c-10.2,0-18.9-9.1-18.9-19.7c0-11.6,9.3-20.3,21.7-20.3c13.4,0,23.5,9.6,23.5,22.4
		c0,14-13,24.8-29.8,24.8c-31.1,0-122.6-33.1-197.6-57c-29.7,20.7-66.3,46-97.4,46c-23.3,0-41.2-16-41.2-36.8
		c0-19.1,17.6-33.8,40.6-33.8c18.1,0,54,10,95,22.9c8.3-6,16.1-11.8,23.2-16.5c-5.8-5.1-9.5-11.3-10.9-17.6
		c-12.9-6.8-22.9-19.9-22.9-33.5c0-16,10.3-27.7,23.4-31.4l0.3,0.9c-6.5,3.3-9.6,12-9.6,30.6C719.5,586.3,720.7,593.8,724.2,598.7z
		 M715.4,639.5c-41-13-76.7-23-94.3-23c-22.8,0-40.3,14.5-40.3,33.4c0,20.6,17.8,36.4,41,36.4C650.9,686.3,686,661,715.4,639.5z
		 M756.5,574.9c-0.9-0.1-1.8-0.1-2.7-0.1c-13,0-24.7,13.5-24.7,25.9c0,0.3,0,0.7,0,1c3,1.7,6.9,2.6,10.6,2.6
		C751.6,604.3,756,597,756.5,574.9z M773,597.4c1.3-2.2,1.9-4.4,1.9-6.5c0-4-2.1-7.7-5.4-10.5c-3.5,14.2-15.3,24.3-29.8,24.3
		c-3.6,0-7.6-1-10.5-2.7c0,0.7,0.1,1.3,0.1,2c4.8,3.6,11,5.5,18,5.5C757.8,609.5,768.4,605,773,597.4z M774.5,619.7
		c0-3.3-3.2-5.8-7.5-5.8c-5.8,0-14.2,4.2-24.4,10.7c5.4,3.4,11.4,5,16.9,5C767.4,629.7,774.5,624.9,774.5,619.7z"/>
	<path class="st2" d="M803.9,594.3c0,5.1,0.8,5.6,11.7,7.3v0.7c-9-0.9-12.9-1.2-18.3-1.2c-5.4,0-9.3,0.3-18.3,1.2v-0.7
		c10.9-1.7,11.7-2.2,11.7-7.3v-42.5c0-8.2-0.9-8.8-15.2-10.7v-0.7c3.7,0.2,6.8,0.3,9.3,0.3c6.5,0,10.5-1,15.8-4.4
		c1.3,0,2.4,0.5,3.2,1.1V594.3z M812.6,543.6c3.8-3.4,7.2-5.1,10.3-5.1c3.8,0,6.3,1.9,6.3,4.8c0,2.6-2.1,4.8-4.8,4.8
		c-1.1,0-2.1-0.4-3-1c-3-2.1-2.9-4.5-5.6-4.5c-0.7,0-1.7,0.5-2.8,1.3L812.6,543.6z"/>
	<path class="st2" d="M963.4,535.9V591c0,8,0.9,8.6,15.2,10.6v0.7c-11.7-1-15.2-1.2-21.7-1.2c-6.6,0-10,0.2-21.7,1.2v-0.7
		c14.2-2,15.2-2.6,15.2-10.6v-66.8c-29.7-30.7-56.9-84.2-85-84.2c-19.9,0-35.5,13.3-35.5,33.1c0,20.2,14.1,31.2,36.3,34
		c4.6,0.6,8.7,0.8,12.2,1c5.9,0.3,10.2,0.3,14.5,0.2l30.6,57.7l-7.6,14l-32.9-62.2c-2.4-4.8-7.7-8.7-16.8-10.1
		c-24.4-3.5-36.7-15.2-36.7-34.6c0-21.7,17.9-34.4,39-34.4c30.9,0,58.4,44.3,82.5,75.6l3.4-6.2c4.8,0.1,7.9,0.1,12-0.2
		c1.7-0.1,3.4-0.3,5.4-0.5c3.8-5.3,10.3-8.6,18-8.6c13.4,0,23.5,9.6,23.5,22.4c0,13.6-11,23.8-25.6,23.8
		C979.2,545.2,971.2,541.7,963.4,535.9z M881.6,581.5c0,13.4,4,18.4,15.2,20.1v0.7c-5.5-0.8-10-1.2-15.4-1.2
		c-5.4,0-9.9,0.4-15.4,1.2v-0.7c11.2-1.7,15.2-6.8,15.2-20.1H881.6z M1012.8,521.4c0-12.6-9.9-22.2-23.2-22.2
		c-7.5,0-13.8,3.2-17.6,8.3c2.1-0.2,4.2-0.4,6.5-0.5v0.7c-3.3,0.5-6,1.2-8.1,2.4c-1.4,2.8-2.2,5.8-2.2,9.2
		c0,10.4,8.6,19.5,18.7,19.5c5.9,0,9.4-3,9.4-5.2c0-1-0.5-1.8-1.8-2.2c-2.8-0.9-4.2-2.6-4.2-4.8c0-2.9,2.3-5.1,5.4-5.1
		c3.4,0,5.6,2.8,5.6,6.2c0,5.5-6,11.4-14.4,11.4c-10.2,0-18.9-9.1-18.9-19.7c0-3.2,0.7-6.3,2.1-8.9c-4.8,2.9-6.6,8.2-6.6,17.3v1.9
		c8.5,9.2,16.5,15.3,24.1,15.3C1001.9,544.8,1012.8,534.9,1012.8,521.4z"/>
	<path class="st2" d="M1009.7,600.6c-2.1,1.5-4.1,2.2-6.6,2.2c-10.1,0-16.7-7.9-16.7-19.9c0-8.1,5-16,13.6-17.9
		c3.4-0.8,6.4-1.1,9.2-1.1h1.3v0.7c-1.6,0.1-3.1,0.3-4.3,1c-4.3,2.2-6.6,8.3-6.6,17.3c0,8.9,4.3,17.7,8.7,17.7
		c0.7,0,1.5-0.2,2.1-0.7l0.1,0.3L1009.7,600.6z M1010.1,540.1c-3.3,1.5-5.2,4.2-5.2,8c0,1.4,0.3,2.8,0.3,4.1c0,3.8-2.7,6.6-6.6,6.6
		c-3.2,0-6.1-2.3-6.1-5.8c0-5.9,7.9-11.8,17.3-13.8L1010.1,540.1z M1019.5,539.5l0.2-0.8c11,1.1,17.7,8.3,17.7,19.6v35.4
		c0,2.8,1.3,4.7,3.3,4.7c1.5,0,3.6-1.4,6-4l0.2,0.2c-5.2,5.7-9.9,8.5-14.6,8.5c-5,0-8.1-2.8-8.1-7.3v-43.9
		C1024.3,544.9,1022.8,540.8,1019.5,539.5z"/>
	<path class="st2" d="M1129.3,624.7c-9.2,0-16,8.1-16,16.1c0,8.3,6.8,15.5,14.7,15.5c2.8,0,4.3-1.3,4.3-2.6c0-0.6-0.3-1.3-1-1.7
		c-1.5-1.1-2.1-2.4-2.1-3.6c0-2.2,1.8-4.1,4-4.1c2.7,0,4.7,1.9,4.7,4.6c0,1.3-0.5,2.7-1.5,4c-1.8,2.3-4.8,3.8-8.5,3.8
		c-8.1,0-15-7.3-15-15.8c0-8.6,7.2-16.4,16.3-16.4c11.6,0,20,8.9,20,19.4c0,5.7-2.3,11.3-7.1,15.2c-4.6,3.8-9.6,5.5-15,5.5
		c-10.1,0-26.4-11.5-41.4-22.6c-9.8,4.1-20.5,6.6-27.4,6.6c-11.8,0-19.1-5.4-19.1-14c0-7.6,5.7-13,13.8-13c0.3,0,0.5,0,0.7,0
		c-1.3-2.4-2.4-5.2-3.6-8.1c8.1-9.7,15.4-16.7,22.6-24.6l0.3,0.3c-2.8,3-4.8,6-6.1,9.3c-1.7,4.4-2.1,9-2.1,15
		c0,4.2,0.4,8.1,1.3,11.6c7.5,3.3,16.3,8.6,24.9,14.2c0.9-0.4,1.7-0.9,2.4-1.3l-0.9-1.4c3.2-3.3,5.2-7.9,5.2-13
		c0-14.6-10-27.1-21.4-27.1c-0.7,0-1.5,0.1-2.3,0.1l-0.4-1.1c4.2-1.5,7.9-2.1,11.5-2.1c14.6,0,23.5,11.4,23.5,23.2
		c0,9.3-6.6,17.3-15,21.8l-0.1-0.1c-0.7,0.4-1.5,0.8-2.3,1.2c17.1,11.1,33.7,23.2,40.4,23.2c3.4,0,6.7-1.1,10-3.7
		c4.9-4,7.2-9.4,7.2-15C1149,633.4,1140.6,624.7,1129.3,624.7z M1085.4,641.6c-0.1-0.1-0.3-0.2-0.5-0.3c-1.6,0.3-3.3,0.5-5,0.5
		c-10.7,0-19.3-6.8-26-20c-0.3-0.1-0.6-0.1-0.9-0.1c-7.9,0-13.6,5.2-13.6,12.7c0,8.5,7.1,13.8,18.8,13.8
		C1064.9,648.2,1075.8,645.7,1085.4,641.6z M1071,582.1c-8.9-3.4-15-11.3-15-20.8c0-11.3,8.5-20.3,20.4-22.3l0.1,0.6
		c-5.1,1.5-6.9,6.7-6.9,21.7c0,9.9,0.8,15.5,2.6,18.6L1071,582.1z M1084.6,641c-6.2-4.6-12.2-9.1-17.5-12.6c2.7,8,7.6,13,13.9,13
		C1082.2,641.4,1083.4,641.2,1084.6,641z M1085.9,583.3c5.6-1.3,7.5-6.2,7.5-22c0-15.1-1.8-20.3-6.9-21.8l0.1-0.5
		c3,0.5,6.1,1.6,8.9,3.1c0.7,1.2,1,3.2,1,5c0,1.1-0.1,2.1-0.3,2.8l0.2,0.1c1.4-1.4,2.4-3.2,3.2-4.9c4.8,3.8,7.4,9.9,7.4,16
		c0,11.5-8.9,20.4-21.1,22.4V583.3z M1100.6,542.8c0.6-1.5,0.9-2.9,0.9-4.2c0-2.3-0.9-4.5-3.1-7l0.3-1.3c2.2,0.3,4.2,0.5,6,0.5
		c6.4,0,11.2-1.8,17.8-4.4l0.1,0.5c-12.6,6.4-17.2,9.8-21.2,16.3L1100.6,542.8z"/>
	<path class="st2" d="M1118.8,541.1c-23.4-3-38-19.4-38-39.4c0-23.8,17.3-43.7,45.4-43.7c33.2,0,34.3,59.7,52.3,81.7
		c5,1.4,8.9,4.1,11.3,7.6c1.3,0.3,2.7,0.5,4.2,0.5c14.5,0,25.3-9.9,25.3-23.4c0-12.6-9.9-22.2-23.2-22.2c-12.2,0-21.4,8.6-21.4,20.1
		c0,10.4,8.6,19.5,18.7,19.5c5.9,0,9.4-3,9.4-5.2c0-1-0.5-1.8-1.8-2.2c-2.8-0.9-4.2-2.6-4.2-4.8c0-2.9,2.3-5.1,5.4-5.1
		c3.4,0,5.6,2.8,5.6,6.2c0,5.5-6,11.4-14.4,11.4c-10.2,0-18.9-9.1-18.9-19.7c0-11.6,9.3-20.3,21.7-20.3c13.4,0,23.5,9.6,23.5,22.4
		c0,13.6-11,23.8-25.6,23.8c-1.3,0-2.5-0.1-3.8-0.2c1.9,3,2.9,6.6,2.9,10.6v35.7c0,5.1,0.8,5.6,11.7,7.3v0.7
		c-9-0.9-12.9-1.2-18.3-1.2c-5.4,0-9.3,0.3-18.3,1.2v-0.7c10.9-1.7,11.7-2.2,11.7-7.3v-35.7c0-13.4-4.3-18.7-15.2-18.7v-0.9
		c1.6-0.2,3.2-0.3,4.8-0.3c0.9,0,1.9,0,2.8,0.1c-21.6-23-20.7-80.2-46.2-80.2c-27.9,0-45,19.7-45,43.2c0,20.3,15.2,36.2,37.6,38.8
		c2.8,0.3,6.8,0.3,9.3,0.3c6.5,0,10.5-1,15.8-4.4c1.3,0,2.4,0.5,3.2,1.1v56.8c0,5.1,0.8,5.6,11.7,7.3v0.7c-9-0.9-12.9-1.2-18.3-1.2
		s-9.3,0.3-18.3,1.2v-0.7c10.9-1.7,11.7-2.2,11.7-7.3v-42.5C1133.9,543.6,1133.1,542.9,1118.8,541.1z"/>
	<path class="st2" d="M1216.9,540.8c6.5,0,10.5-1,15.8-4.4c1.3,0,2.4,0.5,3.2,1.1v56.8c0,5.1,0.8,5.6,11.7,7.3v0.7
		c-9-0.9-12.9-1.2-18.3-1.2c-5.4,0-9.3,0.3-18.3,1.2v-0.7c10.9-1.7,11.7-2.2,11.7-7.3v-42.5c0-8.2-0.9-8.8-15.2-10.7v-0.7
		C1211.2,540.6,1214.3,540.8,1216.9,540.8z M1228.9,508.1c5.2,0,9.5,4.3,9.5,9.4c0,5.2-4.3,9.5-9.5,9.5c-5.1,0-9.3-4.2-9.3-9.5
		C1219.6,512.4,1223.8,508.1,1228.9,508.1z"/>
	<path class="st2" d="M1261.9,617c10.2,0,17.8,7.1,17.8,16.5c0,8.9-7.1,16.3-15.8,16.3c-6.9,0-11.8-5.4-11.8-9.5
		c0-2.8,1.9-5.2,4.7-5.2c2.4,0,4.3,1.8,4.3,4.2c0,1.9-1.3,3.4-3.5,4c-1,0.3-1.6,0.9-1.6,1.7c0,1.9,3,4.4,7.9,4.4
		c8.5,0,15.5-7.3,15.5-16c0-9.3-7.4-16.2-17.5-16.2c-11,0-19.1,8-19.1,18.8c0,12.8,9.3,22.1,21,22.1c14.8,0,27.3-16.1,37.9-29.3
		c-3.6-1.3-7.1-3-9.9-5.4c-6.5-5.3-10.6-11.9-12.2-18.7c-12.9-6.8-22.9-19.9-22.9-33.5c0-2.2,0.2-4.3,0.5-6.4
		c-3.8-2.9-6.2-6.8-6.2-11.3c0-2.7,0.9-5.6,2.8-8.7c5-7.5,15-12.1,26.1-12.1c6,0,12.2,1.6,17.7,4.4c-1.3-6.6-5-13-11.4-18.1
		c-2.8-2.3-6.2-4-9.7-5.2c-7.3,9.2-13.8,16.9-19.4,16.9c-4.4,0-7-3.2-7-6.8c0-6.6,7.5-12,16.7-12c1.7,0,3.4,0.2,5.3,0.5
		c10.6-12.6,23.9-29.2,40.4-29.2c13.2,0,23.3,9.7,23.3,23.2c0,11-8.3,19.1-19.4,19.1c-10.2,0-17.8-7.1-17.8-16.5
		c0-8.9,7.1-16.3,15.8-16.3c6.9,0,11.8,5.4,11.8,9.5c0,2.8-1.9,5.2-4.7,5.2c-2.4,0-4.3-1.8-4.3-4.2c0-1.9,1.3-3.4,3.5-4
		c1-0.3,1.6-0.9,1.6-1.7c0-1.9-3-4.4-7.9-4.4c-8.5,0-15.5,7.3-15.5,16c0,9.3,7.4,16.2,17.5,16.2c11,0,19.1-8,19.1-18.8
		c0-12.8-9.3-22.1-21-22.1c-14.8,0-27.3,16.1-37.9,29.3c3.6,1.3,7.1,3,9.9,5.4c6.5,5.3,10.6,11.9,12.2,18.7
		c12.9,6.8,22.9,19.9,22.9,33.5c0,2.2-0.2,4.3-0.5,6.4c3.8,2.9,6.2,6.8,6.2,11.3c0,2.7-0.9,5.6-2.8,8.7c-5,7.5-15,12.1-26.1,12.1
		c-6,0-12.2-1.6-17.7-4.4c1.3,6.6,5,13,11.4,18.1c2.8,2.3,6.2,4,9.7,5.2c7.3-9.2,13.8-16.9,19.4-16.9c4.4,0,7,3.2,7,6.8
		c0,6.6-7.5,12-16.7,12c-1.7,0-3.4-0.2-5.3-0.5c-10.6,12.6-23.9,29.2-40.4,29.2c-13.2,0-23.3-9.7-23.3-23.2
		C1242.5,625.1,1250.8,617,1261.9,617z M1251.3,522.2c0,2.9,1.7,4.4,4.7,4.4c4.4,0,9.8-6.2,16.2-13.8c-1.8-0.3-3.6-0.5-5.2-0.5
		C1258.5,512.2,1251.3,517.3,1251.3,522.2z M1257.9,562.3c3.5-14.2,15.3-24.3,29.8-24.3c3.6,0,7.6,1,10.5,2.7c0-0.7-0.1-1.3-0.1-2
		c-4.8-3.6-11-5.5-18-5.5c-10.5,0-21.1,4.5-25.7,12c-1.3,2.2-1.9,4.4-1.9,6.5C1252.5,555.7,1254.6,559.4,1257.9,562.3z M1298.3,542
		c0-0.3,0-0.7,0-1c-3-1.7-6.9-2.6-10.6-2.6c-12,0-16.3,7.3-16.8,29.4c0.9,0.1,1.8,0.1,2.7,0.1C1286.5,567.9,1298.3,554.4,1298.3,542
		z M1303.2,543.9c-1.1-1.5-2.3-2.9-3.8-4.1c0.3,1.5,0.4,3,0.4,4.6c0,12.8-11.7,26.1-25.6,26.1c-1.1,0-2.2-0.1-3.3-0.2
		c0,0.3,0,0.7,0,1.1c0,15,1.2,22.5,4.6,27.4c1.1,1.5,2.3,2.9,3.8,4.1c-0.3-1.5-0.4-3-0.4-4.6c0-12.8,11.7-26.1,25.6-26.1
		c1.1,0,2.2,0.1,3.3,0.2c0-0.3,0-0.7,0-1.1C1307.8,556.4,1306.6,548.8,1303.2,543.9z M1307.8,574.9c-0.9-0.1-1.8-0.1-2.7-0.1
		c-13,0-24.7,13.5-24.7,25.9c0,0.3,0,0.7,0,1c3,1.7,6.9,2.6,10.6,2.6C1303,604.3,1307.3,597,1307.8,574.9z M1324.3,597.4
		c1.3-2.2,1.9-4.4,1.9-6.5c0-4-2.1-7.7-5.4-10.5c-3.5,14.2-15.3,24.3-29.8,24.3c-3.6,0-7.6-1-10.5-2.7c0,0.7,0.1,1.3,0.1,2
		c4.8,3.6,11,5.5,18,5.5C1309.1,609.5,1319.7,605,1324.3,597.4z M1327.3,620.5c0-2.9-1.7-4.4-4.7-4.4c-4.4,0-9.8,6.2-16.2,13.8
		c1.8,0.3,3.6,0.5,5.2,0.5C1320.2,630.4,1327.3,625.4,1327.3,620.5z"/>
	<path class="st2" d="M1336.8,540.8c6.5,0,10.5-1,15.8-4.4c1.3,0,2.4,0.5,3.2,1.1v56.8c0,5.1,0.8,5.6,11.7,7.3v0.7
		c-9-0.9-12.9-1.2-18.3-1.2s-9.3,0.3-18.3,1.2v-0.7c10.9-1.7,11.7-2.2,11.7-7.3v-42.5c0-8.2-0.9-8.8-15.2-10.7v-0.7
		C1331.2,540.6,1334.2,540.8,1336.8,540.8z M1373.5,538.9c1.6-0.2,3.2-0.3,4.8-0.3c15.2,0,23.5,8.4,23.5,20v35.7
		c0,5.1,0.8,5.6,11.7,7.3v0.7c-9-0.9-12.9-1.2-18.3-1.2c-5.4,0-9.3,0.3-18.3,1.2v-0.7c10.9-1.7,11.7-2.2,11.7-7.3v-35.7
		c0-13.4-4.3-18.7-15.2-18.7V538.9z"/>
	<path class="st2" d="M1475.1,510.9c-0.1-6.2-1.6-12-4.3-17.5c-28.2,18.7-54.3,35.2-75.9,35.2c-23.6,0-38.5-16.1-38.5-31.8
		c0-21.1,21.6-37.1,50.2-37.1c28.2,0,52.7,12.9,63.3,31.1c7.5-4.8,15.1-9.7,22.8-14.4c-56.9-42.4-116.9-93.7-164.7-93.7
		c-12.3,0-23.6,4.1-33.5,11.1c-10.9,7.6-16,19.2-16,29.7c0,15,11.4,26.2,26.3,26.2c14.5,0,25.3-9.9,25.3-23.4
		c0-12.6-9.9-22.2-23.2-22.2c-12.2,0-21.4,8.6-21.4,20.1c0,10.4,8.6,19.5,18.7,19.5c5.9,0,9.4-3,9.4-5.2c0-1-0.5-1.8-1.8-2.2
		c-2.8-0.9-4.2-2.6-4.2-4.8c0-2.9,2.3-5.1,5.4-5.1c3.4,0,5.6,2.8,5.6,6.2c0,5.5-6,11.4-14.4,11.4c-10.2,0-18.9-9.1-18.9-19.7
		c0-11.6,9.3-20.3,21.7-20.3c13.4,0,23.5,9.6,23.5,22.4c0,13.6-11,23.8-25.6,23.8c-15.2,0-26.7-11.5-26.7-26.6
		c0-10.5,5.1-22.2,16.1-30c10.1-7.1,21.6-11.3,33.8-11.3c48.4,0,113.6,48.6,170.8,90.4c28.4-16.9,58-31.1,84.8-31.1
		c34.4,0,57.4,18.9,57.4,46.9c0,23.6-17.1,43.6-37.3,43.6c-31.4,0-69.5-24.9-109.1-54.4c-7.9,5.1-15.8,10.3-23.4,15.4
		c2.8,5.6,4.3,11.5,4.3,17.7c0,17.3-11.3,30.2-26.5,30.2h-12v41.8c0,12.1,3.4,19.1,9.1,19.1c1.3,0,2.7-0.4,4.2-1.2l0.3,0.5
		c-3.3,2-6.7,2.8-9.9,2.8c-9.1,0-16.7-6.9-16.7-16.7v-46.3h-6.7v-0.7h6.7v-12.8c4.4-2.9,8-7.5,9.8-10.3c1.3,0,2.4,0.4,3.3,1.1v22h12
		C1464,540.4,1475.1,527.9,1475.1,510.9z M1469.5,491c-10.7-18.1-35-30.9-62.9-30.9c-28.4,0-49.8,15.8-49.8,36.7
		c0,15.4,14.4,31.2,38.2,31.2C1412.6,528.1,1439.4,510.4,1469.5,491z M1640.5,488.5c0-27.7-22.9-46.4-56.9-46.4
		c-27.2,0-55.6,14.6-83.1,31.9c42.2,30.8,80,57.5,103.3,57.5C1623.7,531.6,1640.5,511.9,1640.5,488.5z"/>
</g>
</svg>
